<?xml version="1.0" encoding="UTF-8" standalone="no"?>
<svg
   xmlns:dc="http://purl.org/dc/elements/1.1/"
   xmlns:cc="http://creativecommons.org/ns#"
   xmlns:rdf="http://www.w3.org/1999/02/22-rdf-syntax-ns#"
   xmlns:svg="http://www.w3.org/2000/svg"
   xmlns="http://www.w3.org/2000/svg"
   xmlns:sodipodi="http://sodipodi.sourceforge.net/DTD/sodipodi-0.dtd"
   xmlns:inkscape="http://www.inkscape.org/namespaces/inkscape"
   version="1.0"
   width="256.000000pt"
   height="256.000000pt"
   viewBox="0 0 256.000000 256.000000"
   preserveAspectRatio="xMidYMid meet"
   id="svg6"
   sodipodi:docname="c-programming.svg"
   inkscape:version="1.0.1 (3bc2e813f5, 2020-09-07)">
  <metadata
     id="metadata12">
    <rdf:RDF>
      <cc:Work
         rdf:about="">
        <dc:format>image/svg+xml</dc:format>
        <dc:type
           rdf:resource="http://purl.org/dc/dcmitype/StillImage" />
      </cc:Work>
    </rdf:RDF>
  </metadata>
  <defs
     id="defs10" />
  <sodipodi:namedview
     pagecolor="#ffffff"
     bordercolor="#666666"
     borderopacity="1"
     objecttolerance="10"
     gridtolerance="10"
     guidetolerance="10"
     inkscape:pageopacity="0"
     inkscape:pageshadow="2"
     inkscape:window-width="1600"
     inkscape:window-height="822"
     id="namedview8"
     showgrid="false"
     inkscape:zoom="5.1"
     inkscape:cx="70.616323"
     inkscape:cy="29.985491"
     inkscape:window-x="-8"
     inkscape:window-y="-8"
     inkscape:window-maximized="1"
     inkscape:current-layer="svg6" />
  <g
     transform="matrix(0.02337515,0,0,-0.02119999,-6.2790962,50.789876)"
     fill="#000000"
     stroke="none"
     id="g4">
    <path
       d="M 1240,2389 C 1226,2383 1009,2263 757,2122 405,1925 295,1859 284,1838 263,1798 264,757 284,720 294,703 443,614 767,431 c 420,-237 473,-264 513,-264 40,-1 93,27 514,264 355,200 471,270 482,291 11,22 14,123 14,562 v 534 l -25,30 c -29,35 -925,539 -971,547 -16,2 -40,0 -54,-6 z m 188,-375 c 145,-30 278,-101 381,-204 50,-50 111,-131 111,-147 0,-9 -302,-183 -318,-183 -5,0 -22,16 -36,35 -57,75 -185,135 -286,135 -26,0 -76,-9 -111,-20 -316,-99 -348,-536 -51,-682 61,-30 74,-33 162,-33 88,0 101,3 162,33 45,22 83,51 116,88 l 49,54 159,-87 c 87,-47 161,-88 162,-89 11,-8 -80,-123 -143,-182 -86,-80 -194,-140 -311,-174 -111,-31 -277,-31 -389,1 -220,62 -417,235 -500,438 -223,550 262,1136 843,1017 z"
       id="path2" />
  </g>
  <path
     style="fill:#2962ff;stroke:#0000ff;stroke-width:0.196078"
     d="m 31.254344,0.1834845 c -3.03879,0.8564549 -5.751719,2.6242787 -8.6126,3.9404536 C 15.53503,7.798944 8.2670261,11.193828 1.3768925,15.26812 -0.03479884,15.817066 0.57108,17.489326 0.3582119,18.632309 0.00639927,27.95703 -0.05058188,37.307874 0.47845496,46.625732 c 0.0825708,1.243236 1.72912864,1.479275 2.53050294,2.166646 8.7885201,4.794739 17.7256391,9.325031 26.7560311,13.646009 2.238036,1.222092 4.482638,-0.551686 6.492587,-1.402339 8.395119,-4.218896 16.880272,-8.290239 25.03706,-12.959078 1.100804,-0.468453 1.607322,-1.566145 1.4112,-2.716408 C 62.907754,35.727576 62.928009,26.091976 63.02556,16.457611 60.454536,14.121556 57.115285,12.870513 54.134279,11.150906 46.985132,7.5274226 39.966221,3.6003242 32.570213,0.49521857 32.144164,0.35477797 31.710007,0.1768616 31.254344,0.1834845 Z m 0.341604,10.1049325 c 7.796343,0.05995 15.740657,3.714862 20.064339,10.350031 -2.946292,2.015131 -6.257135,3.468637 -9.433976,5.09153 -1.170575,0.636149 -1.867763,-1.029295 -2.742035,-1.526885 -3.062251,-2.389002 -7.229673,-3.768514 -11.042326,-2.493153 -4.275118,0.999787 -8.008278,4.686432 -8.192125,9.21152 -0.458261,4.3949 2.671827,8.375763 6.603176,9.989584 2.254308,1.184437 4.93449,0.80973 7.3789,0.682137 3.015167,-0.596956 5.339465,-2.750686 7.542892,-4.7392 3.326845,1.722142 6.871886,3.101091 10.012639,5.140165 -0.903649,2.001392 -2.785574,3.439361 -4.336539,4.95941 -4.165604,3.578851 -9.631492,5.691322 -15.139972,5.671623 C 23.299919,53.194413 14.191858,48.056854 10.005109,40.061701 6.5962936,33.224023 7.8838369,24.558066 12.823732,18.795373 17.35288,13.272935 24.507642,10.23745 31.595948,10.288417 Z"
     id="path837"
     transform="scale(0.74999998)" />
</svg>
