<?xml version="1.0" encoding="UTF-8" standalone="no"?>
<svg
   xmlns:dc="http://purl.org/dc/elements/1.1/"
   xmlns:cc="http://creativecommons.org/ns#"
   xmlns:rdf="http://www.w3.org/1999/02/22-rdf-syntax-ns#"
   xmlns:svg="http://www.w3.org/2000/svg"
   xmlns="http://www.w3.org/2000/svg"
   xmlns:sodipodi="http://sodipodi.sourceforge.net/DTD/sodipodi-0.dtd"
   xmlns:inkscape="http://www.inkscape.org/namespaces/inkscape"
   version="1.0"
   width="256.000000pt"
   height="256.000000pt"
   viewBox="0 0 256.000000 256.000000"
   preserveAspectRatio="xMidYMid meet"
   id="svg6"
   sodipodi:docname="c-programming.svg"
   inkscape:version="1.0.1 (3bc2e813f5, 2020-09-07)">
  <metadata
     id="metadata12">
    <rdf:RDF>
      <cc:Work
         rdf:about="">
        <dc:format>image/svg+xml</dc:format>
        <dc:type
           rdf:resource="http://purl.org/dc/dcmitype/StillImage" />
      </cc:Work>
    </rdf:RDF>
  </metadata>
  <defs
     id="defs10" />
  <sodipodi:namedview
     pagecolor="#ffffff"
     bordercolor="#666666"
     borderopacity="1"
     objecttolerance="10"
     gridtolerance="10"
     guidetolerance="10"
     inkscape:pageopacity="0"
     inkscape:pageshadow="2"
     inkscape:window-width="1600"
     inkscape:window-height="822"
     id="namedview8"
     showgrid="false"
     inkscape:zoom="0.9700586"
     inkscape:cx="70.616323"
     inkscape:cy="112.45474"
     inkscape:window-x="-8"
     inkscape:window-y="-8"
     inkscape:window-maximized="1"
     inkscape:current-layer="svg6"
     inkscape:document-rotation="0" />
  <g
     transform="matrix(0.12642645,0,0,-0.11486143,-33.92645,275.17926)"
     fill="#000000"
     stroke="none"
     id="g4">
    <path
       d="M 1240,2389 C 1226,2383 1009,2263 757,2122 405,1925 295,1859 284,1838 263,1798 264,757 284,720 294,703 443,614 767,431 c 420,-237 473,-264 513,-264 40,-1 93,27 514,264 355,200 471,270 482,291 11,22 14,123 14,562 v 534 l -25,30 c -29,35 -925,539 -971,547 -16,2 -40,0 -54,-6 z m 188,-375 c 145,-30 278,-101 381,-204 50,-50 111,-131 111,-147 0,-9 -302,-183 -318,-183 -5,0 -22,16 -36,35 -57,75 -185,135 -286,135 -26,0 -76,-9 -111,-20 -316,-99 -348,-536 -51,-682 61,-30 74,-33 162,-33 88,0 101,3 162,33 45,22 83,51 116,88 l 49,54 159,-87 c 87,-47 161,-88 162,-89 11,-8 -80,-123 -143,-182 -86,-80 -194,-140 -311,-174 -111,-31 -277,-31 -389,1 -220,62 -417,235 -500,438 -223,550 262,1136 843,1017 z"
       id="path2" />
  </g>
  <path
     style="fill:#2962ff;stroke:#0000ff;stroke-width:0.79607"
     d="M 126.81587,0.74558866 C 114.4892,4.2257894 103.48438,11.409334 91.87939,16.757605 63.051448,31.690975 33.569243,45.486072 5.6198459,62.04194 -0.106592,64.272579 2.3511177,71.067801 1.4876316,75.712307 0.06052557,113.60327 -0.17061491,151.60038 1.97539,189.46346 c 0.3349433,5.05188 7.0141026,6.01103 10.264827,8.80416 35.650084,19.4834 71.90295,37.89222 108.534173,55.4505 9.07845,4.96596 18.18354,-2.24178 26.33677,-5.6984 34.05428,-17.14347 68.47377,-33.68735 101.56128,-52.65916 4.46534,-1.90356 6.52,-6.36402 5.72444,-11.03811 0.81907,-39.1436 0.90123,-78.29782 1.29694,-117.447019 C 245.26462,57.382882 231.71916,52.299274 219.62689,45.311658 190.62683,30.587649 162.15505,14.629902 132.15361,2.0123187 130.42536,1.4416389 128.66423,0.71867653 126.81587,0.74558866 Z m 1.38569,41.06134934 c 31.62538,0.243607 63.85099,15.095326 81.38974,42.057306 -11.95145,8.188476 -25.38168,14.094792 -38.26833,20.689406 -4.74837,2.58499 -7.57647,-4.18253 -11.1229,-6.204486 -12.42183,-9.707699 -29.32672,-15.313341 -44.79251,-10.130917 -17.341745,4.062631 -32.485076,19.043293 -33.23084,37.430973 -1.858907,17.85866 10.8381,34.03488 26.78537,40.59263 9.14446,4.81295 20.01645,3.29033 29.93205,2.77186 12.23084,-2.42573 21.65921,-11.1774 30.59727,-19.25772 13.49514,6.99792 27.87538,12.60127 40.61565,20.88704 -3.6656,8.13265 -11.29951,13.97583 -17.5909,20.15254 -16.89752,14.54265 -39.06955,23.12666 -61.41436,23.04662 C 94.549236,216.15527 57.602954,195.27882 40.619668,162.79055 26.792021,135.00567 32.01486,99.791595 52.053237,76.374917 70.425443,53.934514 99.448289,41.599834 128.20156,41.806938 Z"
     id="path837" />
</svg>
