<?xml version="1.0" encoding="UTF-8" standalone="no"?>
<svg
   xmlns:dc="http://purl.org/dc/elements/1.1/"
   xmlns:cc="http://creativecommons.org/ns#"
   xmlns:rdf="http://www.w3.org/1999/02/22-rdf-syntax-ns#"
   xmlns:svg="http://www.w3.org/2000/svg"
   xmlns="http://www.w3.org/2000/svg"
   xmlns:sodipodi="http://sodipodi.sourceforge.net/DTD/sodipodi-0.dtd"
   xmlns:inkscape="http://www.inkscape.org/namespaces/inkscape"
   version="1.0"
   width="1200.000000pt"
   height="451.000000pt"
   viewBox="0 0 1200.000000 451.000000"
   preserveAspectRatio="xMidYMid meet"
   id="svg32"
   sodipodi:docname="go-programming.svg"
   inkscape:version="1.0.1 (3bc2e813f5, 2020-09-07)">
  <defs
     id="defs36" />
  <sodipodi:namedview
     pagecolor="#ffffff"
     bordercolor="#666666"
     borderopacity="1"
     objecttolerance="10"
     gridtolerance="10"
     guidetolerance="10"
     inkscape:pageopacity="0"
     inkscape:pageshadow="2"
     inkscape:window-width="1600"
     inkscape:window-height="822"
     id="namedview34"
     showgrid="false"
     inkscape:zoom="4.040586"
     inkscape:cx="35.900265"
     inkscape:cy="21.678001"
     inkscape:window-x="-8"
     inkscape:window-y="-8"
     inkscape:window-maximized="1"
     inkscape:current-layer="g30" />
  <metadata
     id="metadata24">
Created by potrace 1.16, written by Peter Selinger 2001-2019
<rdf:RDF>
  <cc:Work
     rdf:about="">
    <dc:format>image/svg+xml</dc:format>
    <dc:type
       rdf:resource="http://purl.org/dc/dcmitype/StillImage" />
  </cc:Work>
</rdf:RDF>
</metadata>
  <g
     transform="matrix(0.009375,0,0,-0.0116408,0,52.499974)"
     fill="#000000"
     stroke="none"
     id="g30">
    <path
       d="m 0,3575 c 0,-514 2,-935 4,-935 2,0 28,33 59,73 30,40 62,81 72,90 15,16 112,17 1381,17 1177,0 1365,-2 1370,-14 3,-8 -7,-53 -22,-100 -25,-75 -32,-87 -57,-96 -20,-7 -492,-10 -1418,-10 H 0 V 1300 0 h 6000 6000 l -1,1118 c -1,986 -3,1105 -15,1017 -65,-482 -287,-928 -642,-1289 C 11101,601 10896,447 10627,311 10308,149 10022,67 9640,28 9446,9 9411,8 9275,18 8731,61 8287,252 7932,595 c -233,224 -382,454 -477,733 l -32,94 -33,-63 C 7225,1037 6891,665 6563,437 6419,336 6194,224 6015,162 5318,-77 4598,-9 4060,347 c -560,371 -848,887 -876,1573 -27,644 237,1282 747,1801 114,115 130,129 267,238 332,260 721,429 1168,507 201,35 510,44 694,20 218,-29 378,-77 575,-171 323,-154 571,-368 765,-659 61,-91 180,-325 180,-354 0,-10 -8,-26 -18,-35 -9,-8 -111,-40 -227,-70 -323,-84 -552,-144 -635,-167 -158,-43 -250,-62 -273,-56 -13,3 -58,44 -101,91 -125,137 -248,213 -441,272 -83,25 -103,27 -260,27 -156,0 -177,-2 -260,-27 -200,-61 -418,-194 -578,-354 -236,-235 -357,-536 -357,-888 0,-195 44,-357 142,-523 40,-69 193,-225 268,-275 140,-91 293,-137 483,-145 204,-8 349,23 519,110 170,86 318,218 443,393 l 64,90 -595,5 -596,5 -29,33 c -49,55 -42,84 95,385 117,257 201,419 234,450 16,16 47,33 68,38 22,4 462,9 980,9 h 942 l 7,28 c 11,44 82,217 124,300 202,400 535,784 881,1014 124,82 385,212 525,261 197,69 467,130 695,159 159,19 510,17 645,-5 376,-62 680,-195 967,-423 417,-333 645,-758 701,-1304 2,-19 5,380 5,888 l 2,922 H 6000 0 Z m 3182,-243 c -3,-28 -96,-167 -126,-188 -17,-12 -140,-14 -821,-14 -993,0 -1355,7 -1355,27 0,17 125,179 148,193 11,6 404,9 1087,7 l 1070,-2 z M 2755,2274 c 13,-13 15,-30 10,-88 -8,-98 -13,-114 -33,-123 -9,-5 -309,-6 -667,-3 -567,4 -650,7 -652,20 -5,25 90,183 117,197 19,10 161,13 617,13 532,0 593,-2 608,-16 z"
       id="path26" />
    <path
       d="m 9755,3363 c -222,-28 -481,-124 -644,-241 -321,-228 -533,-636 -534,-1022 -1,-506 364,-899 892,-960 330,-39 709,117 1000,410 245,246 382,631 341,957 -42,337 -233,613 -526,761 -152,77 -368,115 -529,95 z"
       id="path28" />
    <path
       style="fill:#2962ff;fill-opacity:1;stroke:#0000ff;stroke-width:0.247489"
       d="M 0.04676743,12.335296 C 0.13017345,17.634825 -0.04051573,22.949391 0.38561447,28.236455 0.97880388,27.266722 1.6076287,25.83438 3.0170548,26.231657 13.422957,26.151641 23.837162,25.991026 34.23962,26.260541 c 0.881382,-0.05222 2.571056,0.285793 1.74862,1.534107 0.10127,2.060793 -1.655562,1.78835 -3.179642,1.833256 -10.928931,0.259233 -21.86296,0.163143 -32.79421681,0.217229 0,13.364398 0,26.728796 0,40.093195 C 38.372632,69.883697 76.750945,69.971726 115.0967,69.773495 108.68177,68.964793 102.7697,65.515449 98.77132,60.455141 95.81147,57.039966 94.00147,52.822545 92.757447,48.519907 89.552751,55.364263 84.975351,61.893346 78.455358,65.922875 72.359151,69.643915 64.661648,70.706447 57.815114,68.65738 48.042762,65.281805 41.493984,55.587865 40.154948,45.573243 38.077878,32.26597 42.654739,18.104288 52.259665,8.6306974 56.295817,4.3472328 61.964795,1.7587384 67.504882,0.39830925 59.098616,-0.00324254 50.653608,0.2621976 42.232501,0.16854906 28.159794,0.15992325 14.087088,0.15390244 0.01438119,0.14647001 0.0251766,4.2094122 0.03597202,8.2723541 0.04676743,12.335296 Z M 39.860087,17.718179 c 0.09398,1.396387 -0.946783,2.528975 -1.521185,3.712333 -9.052328,-0.09412 -18.139184,0.126421 -27.170121,-0.232504 -0.743317,-0.572784 0.531307,-1.542403 0.785488,-2.131691 0.815171,-1.739376 2.854727,-1.09815 4.371505,-1.263633 7.843851,-0.139875 15.689656,-0.06516 23.534313,-0.08451 z m -11.743153,16.58997 c 2.105197,0.177437 4.407079,-0.298494 6.400874,0.398304 0.175194,0.951936 0.364098,2.381528 -0.269724,3.162249 -5.132352,0.596552 -10.343866,0.200543 -15.502857,0.124229 -0.89706,0.16932 -1.50514,-0.616979 -0.871528,-1.360223 0.392163,-1.248666 1.229752,-2.523322 2.733688,-2.237458 2.501895,-0.09105 5.006328,-0.08859 7.509547,-0.0871 z"
       id="path885"
       transform="matrix(80.000001,0,0,-64.428563,0,4509.9971)" />
    <path
       style="fill:#2962ff;fill-opacity:1;stroke:#0000ff;stroke-width:0.247489"
       d="M 112.96984,0.16000455 C 101.07281,0.24481604 89.164892,-0.00236191 77.274892,0.36882328 76.806729,0.64450104 78.561891,0.76443365 78.79979,0.98562216 86.681477,3.6403031 92.572236,10.793116 94.773128,18.662697 c -0.229588,1.523671 -2.387147,1.38093 -3.477897,2.007947 -3.581636,1.105848 -7.139403,2.4717 -10.800567,3.213488 -2.01555,-1.305658 -3.110299,-3.790352 -5.3882,-4.832317 -2.517728,-1.242701 -5.666394,-1.519298 -8.300061,-0.534614 -6.05558,2.746844 -10.300199,8.813227 -11.036939,15.399413 -1.01459,6.138674 0.787112,13.483104 6.43326,16.836494 4.212812,2.488829 9.759315,1.093128 12.998138,-2.365036 1.605043,-1.539039 2.757914,-3.455402 3.965483,-5.302285 -4.917554,-0.04341 -9.835107,-0.08708 -14.752656,-0.130996 -1.676436,-1.884868 0.125055,-4.363085 0.624565,-6.361607 1.082694,-2.586276 1.74143,-5.465319 3.415497,-7.739939 4.676176,-0.620071 9.459668,-0.289946 14.177836,-0.458538 3.444087,-0.03422 6.888174,-0.06844 10.332261,-0.102663 2.999087,-10.283152 9.403822,-20.3640781 19.515372,-24.8015741 7.75898,-3.26802762 17.34339,-3.95947798 24.61208,0.9072979 6.70217,4.3423954 10.92682,11.7726582 12.48852,19.4563942 0.32005,-7.881 0.0179,-15.8155649 0.49015,-23.70769199 -12.36671,0.004512 -24.73342,0.009023 -37.10013,0.0135345 z"
       id="path887"
       transform="matrix(80.000001,0,0,-64.428563,0,4509.9971)" />
    <path
       style="fill:#2962ff;fill-opacity:1;stroke:#0000ff;stroke-width:0.247489"
       d="m 149.255,41.038687 c -1.75023,8.09799 -6.01865,15.629802 -12.26087,21.110221 -4.46523,4.214416 -10.38609,6.680449 -16.3734,7.584952 8.9394,0.349486 17.92013,0.102693 26.87524,0.200436 1.73197,0.21195 3.21298,0.177009 2.54134,-1.97556 -0.18709,-9.692346 -0.33268,-19.385866 -0.32697,-29.08026 -0.15178,0.72007 -0.30356,1.44014 -0.45534,2.160211 z"
       id="path889"
       transform="matrix(80.000001,0,0,-64.428563,0,4509.9971)" />
    <path
       style="fill:#2962ff;fill-opacity:1;stroke:#0000ff;stroke-width:0.247489"
       d="m 122.97332,17.995154 c -7.14477,0.243059 -12.76027,6.386298 -14.60229,12.945195 -1.97263,6.378829 -1.06241,14.360376 4.4277,18.750297 2.84609,2.245624 6.82381,3.348437 10.28142,1.906436 3.69032,-1.358115 6.68937,-4.275239 8.83032,-7.501038 2.33943,-3.888349 3.44677,-8.444119 3.00779,-12.970881 -0.29776,-5.114469 -3.23453,-10.434708 -8.07164,-12.488085 -1.23323,-0.46423 -2.55746,-0.670854 -3.8733,-0.641924 z"
       id="path891"
       transform="matrix(80.000001,0,0,-64.428563,0,4509.9971)" />
  </g>
</svg>
