<?xml version="1.0" encoding="UTF-8" standalone="no"?>
<svg
   xmlns:dc="http://purl.org/dc/elements/1.1/"
   xmlns:cc="http://creativecommons.org/ns#"
   xmlns:rdf="http://www.w3.org/1999/02/22-rdf-syntax-ns#"
   xmlns:svg="http://www.w3.org/2000/svg"
   xmlns="http://www.w3.org/2000/svg"
   xmlns:sodipodi="http://sodipodi.sourceforge.net/DTD/sodipodi-0.dtd"
   xmlns:inkscape="http://www.inkscape.org/namespaces/inkscape"
   version="1.0"
   width="1200.000000pt"
   height="451.000000pt"
   viewBox="0 0 1200.000000 451.000000"
   preserveAspectRatio="xMidYMid meet"
   id="svg32"
   sodipodi:docname="go-programming.svg"
   inkscape:version="1.0.1 (3bc2e813f5, 2020-09-07)">
  <defs
     id="defs36" />
  <sodipodi:namedview
     pagecolor="#ffffff"
     bordercolor="#666666"
     borderopacity="1"
     objecttolerance="10"
     gridtolerance="10"
     guidetolerance="10"
     inkscape:pageopacity="0"
     inkscape:pageshadow="2"
     inkscape:window-width="1600"
     inkscape:window-height="822"
     id="namedview34"
     showgrid="false"
     inkscape:zoom="0.57848045"
     inkscape:cx="666.81381"
     inkscape:cy="229.11803"
     inkscape:window-x="-8"
     inkscape:window-y="-8"
     inkscape:window-maximized="1"
     inkscape:current-layer="g30"
     inkscape:document-rotation="0" />
  <metadata
     id="metadata24">
Created by potrace 1.16, written by Peter Selinger 2001-2019
<rdf:RDF>
  <cc:Work
     rdf:about="">
    <dc:format>image/svg+xml</dc:format>
    <dc:type
       rdf:resource="http://purl.org/dc/dcmitype/StillImage" />
  </cc:Work>
</rdf:RDF>
</metadata>
  <g
     transform="matrix(0.009375,0,0,-0.0116408,0,52.499974)"
     fill="#000000"
     stroke="none"
     id="g30">
    <path
       d="m 43992.007,-4691.5949 c -1002.429,-222.2284 -2171.923,-984.1543 -2907.94,-1912.7512 -1449.455,-1809.5739 -2406.728,-5047.7579 -2411.24,-8111.3349 -4.516,-4015.984 1643.615,-7135.118 4027.767,-7619.257 1490.089,-309.533 3201.441,928.597 4515.431,3254.056 1106.282,1952.435 1724.894,5008.076 1539.764,7595.449 -189.649,2674.6767 -1052.097,4865.2134 -2375.118,6039.849 -686.349,611.128 -1661.679,912.7234 -2388.664,753.9891 z"
       id="path28"
       style="stroke-width:5.98646" />
    <path
       style="fill:#2962ff;stroke:#0000ff;stroke-width:29.5815"
       d="m 22.529509,-2643.9576 c 115.084971,-2156.6311 -215.551739,-4697.0517 253.928201,-6654.639 3475.22349,793.0677 7093.05929,237.3575 10621.84829,411.295 1444.001,939.5134 3209.004,-1192.8744 1305.692,-1788.2434 -4060.4898,-54.241 -8120.9788,-108.482 -12181.468491,-162.722 0,-6789.633 0,-13579.264 0,-20368.896 6925.840391,131.231 13873.294491,-240.484 20786.088491,260.298 -353.494,533.107 -1409.238,813.356 -1902.461,1472.701 -3712.113,3420.431 -5026.623,10104.682 -4567.816,16087.464 355.85,7634.9079 4064.578,15111.2742 9170.99,17506.6813 -6650.52,486.8444 -13346.704,117.3768 -20014.5177,250.1768 C 2462.8669,3869.9176 -47.035456,5471.5439 22.529509,3404.7954 c 0,-2016.251 0,-4032.50185 0,-6048.753 z M 10553.657,-4687.165 c 1222.404,-167.2577 2747.797,252.8493 3808.479,-421.4034 -172.258,-2189.4919 -2124.08,-1255.0518 -3148.523,-1504.0078 -2426.4886,108.1645 -4950.211,-287.4348 -7320.3463,334.5652 112.4079,2264.7715 2115.8132,1354.037 3153.4114,1585.5086 1168.9598,14.3043 2337.994,10.8229 3506.9789,5.3374 z m 1991.846,-8405.329 c 630.62,-2944.593 -1691.776,-1693.884 -2959.9753,-1940.857 -1062.5967,135.924 -2529.8836,-232.385 -3394.4551,268.511 203.4417,2477.014 2277.6443,1439.397 3430.9205,1672.346 974.5029,0 1949.0049,0 2923.5099,0 z"
       id="path836" />
    <path
       style="fill:#2962ff;stroke:#0000ff;stroke-width:29.5815"
       d="m 27914.608,4374.5926 c 2966.274,-1508.3284 5473.861,-4974.93432 6261.486,-9352.3803 -210.177,-1547.4146 -1878.495,-1304.7014 -2659.471,-1956.0585 -1184.799,-243.5275 -2700.17,-2092.8007 -3378.122,127.7221 -1789.98,3322.2385 -5352.967,1694.2117 -6645.918,-1515.0942 -2070.944,-3945.1157 -2052.716,-11007.6477 1395.491,-13370.5617 2188.757,-1304.169 4429.557,1139.663 5355.618,3792.001 -1701.156,713.654 -3663.794,-263.913 -5285.797,706.972 63.559,2382.2 858.318,4685.824 1547.138,6849.862 2960.572,58.004 5921.139,116.34 8881.703,175.006 1328.406,6031.7461 4170.441,12137.341 8774.535,13625.1729 3527.629,1613.6143 7646.61,-96.518 9781.348,-4468.0155 937.492,-1714.5422 1503.267,-3751.1817 2018.971,-5773.9245 7.628,3719.9778 15.485,7439.9545 23.574,11159.9303 -8690.185,0.1205 -17380.372,-0.09 -26070.556,-0.6316 z"
       id="path838" />
    <path
       style="fill:#2962ff;stroke:#0000ff;stroke-width:29.5815"
       d="m 32731.24,-22622.406 c -1520.078,-3825.741 -3884.509,-7021.217 -6886.752,-8315.684 -725.273,-588.311 2426.558,-85.944 3208.571,-250.234 3593.681,141.364 7281.664,-273.522 10821.969,244.617 -3128.758,1563.676 -5320.839,5519.354 -6436.608,9852.309 -100.733,606.886 -561.954,-1388.391 -707.18,-1531.008 z"
       id="path840" />
    <path
       style="fill:#2962ff;stroke:#0000ff;stroke-width:29.5815"
       d="m 53467.077,-18915.067 c -1386.099,-5755.98 -4726.553,-10720.12 -8931.067,-12271.247 3149.717,-6.625 6299.434,-13.568 9449.154,-20.849 -3.858,4798.231 -7.711,9596.463 -11.565,14394.691 -168.84,-700.864 -337.683,-1401.727 -506.522,-2102.595 z"
       id="path842" />
    <path
       style="fill:#2962ff;stroke:#0000ff;stroke-width:29.5815"
       d="m 44365.686,-4917.1362 c -5082.366,-660.475 -7610.34,-11521.7748 -3493.624,-16124.5338 2496.38,-2775.018 5889.865,314.133 6963.563,3889.325 1673.982,4230.717 630.942,12078.4094 -3469.939,12235.2088 z"
       id="path844" />
  </g>
</svg>
