<?xml version="1.0" encoding="UTF-8" standalone="no"?>
<svg
   xmlns:dc="http://purl.org/dc/elements/1.1/"
   xmlns:cc="http://creativecommons.org/ns#"
   xmlns:rdf="http://www.w3.org/1999/02/22-rdf-syntax-ns#"
   xmlns:svg="http://www.w3.org/2000/svg"
   xmlns="http://www.w3.org/2000/svg"
   xmlns:sodipodi="http://sodipodi.sourceforge.net/DTD/sodipodi-0.dtd"
   xmlns:inkscape="http://www.inkscape.org/namespaces/inkscape"
   version="1.0"
   width="1200.000000pt"
   height="451.000000pt"
   viewBox="0 0 1200.000000 451.000000"
   preserveAspectRatio="xMidYMid meet"
   id="svg10"
   sodipodi:docname="go-programming.svg"
   inkscape:version="1.0.1 (3bc2e813f5, 2020-09-07)">
  <defs
     id="defs14" />
  <sodipodi:namedview
     pagecolor="#ffffff"
     bordercolor="#666666"
     borderopacity="1"
     objecttolerance="10"
     gridtolerance="10"
     guidetolerance="10"
     inkscape:pageopacity="0"
     inkscape:pageshadow="2"
     inkscape:window-width="1600"
     inkscape:window-height="822"
     id="namedview12"
     showgrid="false"
     inkscape:zoom="0.52249848"
     inkscape:cx="800"
     inkscape:cy="300.66667"
     inkscape:window-x="-8"
     inkscape:window-y="-8"
     inkscape:window-maximized="1"
     inkscape:current-layer="svg10" />
  <metadata
     id="metadata2">
Created by potrace 1.16, written by Peter Selinger 2001-2019
<rdf:RDF>
  <cc:Work
     rdf:about="">
    <dc:format>image/svg+xml</dc:format>
    <dc:type
       rdf:resource="http://purl.org/dc/dcmitype/StillImage" />
  </cc:Work>
</rdf:RDF>
</metadata>
  <g
     transform="translate(0.000000,451.000000) scale(0.100000,-0.100000)"
     fill="#000000"
     stroke="none"
     id="g8">
    <path
       d="M0 3575 c0 -514 2 -935 4 -935 2 0 28 33 59 73 30 40 62 81 72 90 15 16 112 17 1381 17 1177 0 1365 -2 1370 -14 3 -8 -7 -53 -22 -100 -25 -75 -32 -87 -57 -96 -20 -7 -492 -10 -1418 -10 l-1389 0 0 -1300 0 -1300 6000 0 6000 0 -1 1118 c-1 986 -3 1105 -15 1017 -65 -482 -287 -928 -642 -1289 -241 -245 -446 -399 -715 -535 -319 -162 -605 -244 -987 -283 -194 -19 -229 -20 -365 -10 -544 43 -988 234 -1343 577 -233 224 -382 454 -477 733 l-32 94 -33 -63 c-165 -322 -499 -694 -827 -922 -144 -101 -369 -213 -548 -275 -697 -239 -1417 -171 -1955 185 -560 371 -848 887 -876 1573 -27 644 237 1282 747 1801 114 115 130 129 267 238 332 260 721 429 1168 507 201 35 510 44 694 20 218 -29 378 -77 575 -171 323 -154 571 -368 765 -659 61 -91 180 -325 180 -354 0 -10 -8 -26 -18 -35 -9 -8 -111 -40 -227 -70 -323 -84 -552 -144 -635 -167 -158 -43 -250 -62 -273 -56 -13 3 -58 44 -101 91 -125 137 -248 213 -441 272 -83 25 -103 27 -260 27 -156 0 -177 -2 -260 -27 -200 -61 -418 -194 -578 -354 -236 -235 -357 -536 -357 -888 0 -195 44 -357 142 -523 40 -69 193 -225 268 -275 140 -91 293 -137 483 -145 204 -8 349 23 519 110 170 86 318 218 443 393 l64 90 -595 5 -596 5 -29 33 c-49 55 -42 84 95 385 117 257 201 419 234 450 16 16 47 33 68 38 22 4 462 9 980 9 l942 0 7 28 c11 44 82 217 124 300 202 400 535 784 881 1014 124 82 385 212 525 261 197 69 467 130 695 159 159 19 510 17 645 -5 376 -62 680 -195 967 -423 417 -333 645 -758 701 -1304 2 -19 5 380 5 888 l2 922 -6000 0 -6000 0 0 -935z m3182 -243 c-3 -28 -96 -167 -126 -188 -17 -12 -140 -14 -821 -14 -993 0 -1355 7 -1355 27 0 17 125 179 148 193 11 6 404 9 1087 7 l1070 -2 -3 -23z m-427 -1058 c13 -13 15 -30 10 -88 -8 -98 -13 -114 -33 -123 -9 -5 -309 -6 -667 -3 -567 4 -650 7 -652 20 -5 25 90 183 117 197 19 10 161 13 617 13 532 0 593 -2 608 -16z"
       id="path4" />
    <path
       d="M9755 3363 c-222 -28 -481 -124 -644 -241 -321 -228 -533 -636 -534 -1022 -1 -506 364 -899 892 -960 330 -39 709 117 1000 410 245 246 382 631 341 957 -42 337 -233 613 -526 761 -152 77 -368 115 -529 95z"
       id="path6" />
  </g>
  <path
     style="fill:#2962ff;stroke:#0000ff;stroke-width:0.208613"
     d="M -0.00233454,36.237068 C 0.31107978,105.79128 1.5533741,175.3368 2.5320629,244.88377 9.8228681,235.50135 17.077135,222.91434 31.131877,225.09079 c 117.740513,-1.38689 235.537423,-0.9284 353.271813,0.97189 4.18045,3.13337 -2.05938,11.9497 -2.64281,16.53339 -1.76815,7.59183 -6.3084,14.17422 -15.169,11.32256 -122.19264,1.3454 -244.39655,0.62421 -366.59421454,0.81489 0,115.47082 0,230.94167 0,346.41249 C 407.69853,600.58859 815.4078,601.81244 1223.1023,599.29194 c 12.3226,-0.25931 -14.7694,-2.04598 -18.8435,-3.51002 -80.1947,-12.02354 -152.5312,-62.70101 -193.8253,-132.0578 -9.2176,-14.23164 -12.85985,-32.59485 -21.76294,-46.11633 -43.33002,75.72623 -111.47745,141.4691 -196.86821,166.19134 -51.88143,16.5389 -108.03015,18.83265 -161.44694,9.21643 C 539.55867,573.22092 457.55946,504.61208 433.94779,413.01 422.6686,371.15832 421.56714,326.65913 427.67053,283.90394 453.61128,136.04105 586.94334,16.486992 735.25325,2.2021295 532.4593,-0.53327263 329.60912,0.85132917 126.79235,0.2731294 84.527457,0.24452664 42.26256,0.21592368 -0.00233454,0.18732092 c 0,12.01658208 0,24.03316508 0,36.04974708 z M 280.42985,153.29782 c 47.7072,0.80878 95.66694,-1.68885 143.21588,1.99238 3.56417,4.71875 -4.86828,11.87734 -6.75092,16.7016 -5.81229,14.44793 -22.7811,10.50652 -35.04734,11.62451 -88.23056,1.2243 -176.68341,0.90972 -264.78906,-1.38973 1.0635,-11.33058 13.12993,-19.4391 18.92201,-28.92876 48.14981,0 96.29963,0 144.44943,0 z m 38.77479,141.84028 c 16.7271,0.34614 33.57444,-0.57819 50.17209,1.97742 -0.74386,9.63786 2.14895,24.40926 -5.64818,30.3384 -57.62063,-0.95481 -115.39535,1.16973 -172.91842,-2.15352 -8.20298,-2.17711 2.4392,-12.01617 3.73804,-16.47731 3.52261,-8.37327 10.64386,-13.81533 20.05837,-12.33182 34.83754,-1.39346 69.73745,-1.25004 104.5981,-1.35317 z"
     id="path839"
     transform="scale(0.75000001)" />
  <path
     style="fill:#2962ff;stroke:#0000ff;stroke-width:0.208613"
     d="M 1197.8331,0.43029407 C 1068.0501,0.9338075 937.89468,-0.12077518 808.34334,2.3366992 897.91527,13.861286 981.94126,75.830927 1011.4502,162.31773 c -5.6125,8.98588 -19.92897,8.71481 -29.189,12.64183 -40.75727,10.4179 -81.37905,22.83102 -122.77762,29.88221 -18.08708,-8.13114 -29.27381,-27.01716 -47.55107,-35.54885 -39.91562,-23.21596 -91.88441,-20.69706 -130.66417,3.77544 -53.05042,28.52028 -91.74273,86.35162 -88.64783,147.69406 -4.47541,51.15393 31.24562,99.93667 77.66544,118.61577 27.1381,8.75166 57.39107,8.84525 84.94344,1.89893 36.91627,-11.91364 67.99051,-38.53817 88.55437,-71.0977 -52.02394,-1.50203 -104.23319,-0.0382 -156.1383,-3.68571 -13.73691,-4.78399 -6.20856,-22.96744 -2.16434,-32.28553 13.3408,-29.00491 24.26054,-60.03929 43.84358,-85.5303 22.20975,-3.70921 45.91024,-1.63943 68.67468,-2.8072 64.56168,-0.88992 129.13022,-1.11099 193.69527,-1.66351 C 1025.23,149.27078 1098.7296,65.642469 1195.1305,32.084095 1238.6778,16.600234 1284.6642,6.6015628 1331.102,8.9222953 c 38.6656,-1.854743 77.5593,4.4435217 112.934,20.4554517 64.5322,28.458699 120.0156,81.389523 142.287,149.372653 4.4772,10.62289 6.384,23.71751 10.1431,33.70952 3.1445,-69.19377 0.058,-138.701873 2.8297,-207.9663664 0.8617,-9.6381445 -21.1182,-1.7283898 -29.4707,-4.28775263 -123.9974,0.074831 -247.9947,0.14966207 -371.992,0.2244931 z"
     id="path841"
     transform="scale(0.75000001)" />
  <path
     style="fill:#2962ff;stroke:#0000ff;stroke-width:0.208613"
     d="m 1309.9933,153.80619 c -66.8503,3.07373 -130.9982,46.85176 -153.9128,110.50338 -11.7198,27.50361 -13.1037,58.63937 -7.956,87.76276 11.8536,47.14536 52.3727,84.31896 99.8919,93.55214 53.8138,12.49661 109.4527,-14.41003 146.9016,-52.06354 45.6644,-46.12463 62.3507,-123.91678 26.1439,-180.48797 -19.4126,-29.30524 -49.6524,-51.69686 -84.8275,-57.28934 -8.6455,-1.58819 -17.4561,-2.23115 -26.2411,-1.97743 z"
     id="path843"
     transform="scale(0.75000001)" />
  <path
     style="fill:#2962ff;stroke:#0000ff;stroke-width:0.208613"
     d="m 1594.2943,341.84875 c -19.287,89.28676 -83.0413,164.29858 -160.594,209.93631 -49.443,29.24376 -106.0282,43.94584 -163.0089,48.13861 109.9328,1.31834 219.8884,0.81562 329.8305,1.22234 -4.0017,-48.5464 -1.6705,-97.49352 -2.5942,-146.19884 -0.054,-42.81437 -0.1071,-85.62874 -0.1607,-128.44311 -1.1576,5.1149 -2.3151,10.2298 -3.4727,15.34469 z"
     id="path845"
     transform="scale(0.75000001)" />
</svg>
