<?xml version="1.0" encoding="UTF-8" standalone="no"?>
<svg
   xmlns:dc="http://purl.org/dc/elements/1.1/"
   xmlns:cc="http://creativecommons.org/ns#"
   xmlns:rdf="http://www.w3.org/1999/02/22-rdf-syntax-ns#"
   xmlns:svg="http://www.w3.org/2000/svg"
   xmlns="http://www.w3.org/2000/svg"
   xmlns:sodipodi="http://sodipodi.sourceforge.net/DTD/sodipodi-0.dtd"
   xmlns:inkscape="http://www.inkscape.org/namespaces/inkscape"
   version="1.0"
   width="1200.000000pt"
   height="451.000000pt"
   viewBox="0 0 1200.000000 451.000000"
   preserveAspectRatio="xMidYMid meet"
   id="svg10"
   sodipodi:docname="go-programming.svg"
   inkscape:version="1.0.1 (3bc2e813f5, 2020-09-07)">
  <defs
     id="defs14" />
  <sodipodi:namedview
     pagecolor="#ffffff"
     bordercolor="#666666"
     borderopacity="1"
     objecttolerance="10"
     gridtolerance="10"
     guidetolerance="10"
     inkscape:pageopacity="0"
     inkscape:pageshadow="2"
     inkscape:window-width="1600"
     inkscape:window-height="822"
     id="namedview12"
     showgrid="false"
     inkscape:zoom="0.52249848"
     inkscape:cx="860.85445"
     inkscape:cy="453.77716"
     inkscape:window-x="-8"
     inkscape:window-y="-8"
     inkscape:window-maximized="1"
     inkscape:current-layer="svg10" />
  <metadata
     id="metadata2">
Created by potrace 1.16, written by Peter Selinger 2001-2019
<rdf:RDF>
  <cc:Work
     rdf:about="">
    <dc:format>image/svg+xml</dc:format>
    <dc:type
       rdf:resource="http://purl.org/dc/dcmitype/StillImage" />
  </cc:Work>
</rdf:RDF>
</metadata>
  <g
     transform="matrix(0.10838738,0,0,-0.10633306,0.08588149,480.00001)"
     fill="#000000"
     stroke="none"
     id="g8">
    <path
       d="m 0,3575 c 0,-514 2,-935 4,-935 2,0 28,33 59,73 30,40 62,81 72,90 15,16 112,17 1381,17 1177,0 1365,-2 1370,-14 3,-8 -7,-53 -22,-100 -25,-75 -32,-87 -57,-96 -20,-7 -492,-10 -1418,-10 H 0 V 1300 0 h 6000 6000 l -1,1118 c -1,986 -3,1105 -15,1017 -65,-482 -287,-928 -642,-1289 C 11101,601 10896,447 10627,311 10308,149 10022,67 9640,28 9446,9 9411,8 9275,18 8731,61 8287,252 7932,595 c -233,224 -382,454 -477,733 l -32,94 -33,-63 C 7225,1037 6891,665 6563,437 6419,336 6194,224 6015,162 5318,-77 4598,-9 4060,347 c -560,371 -848,887 -876,1573 -27,644 237,1282 747,1801 114,115 130,129 267,238 332,260 721,429 1168,507 201,35 510,44 694,20 218,-29 378,-77 575,-171 323,-154 571,-368 765,-659 61,-91 180,-325 180,-354 0,-10 -8,-26 -18,-35 -9,-8 -111,-40 -227,-70 -323,-84 -552,-144 -635,-167 -158,-43 -250,-62 -273,-56 -13,3 -58,44 -101,91 -125,137 -248,213 -441,272 -83,25 -103,27 -260,27 -156,0 -177,-2 -260,-27 -200,-61 -418,-194 -578,-354 -236,-235 -357,-536 -357,-888 0,-195 44,-357 142,-523 40,-69 193,-225 268,-275 140,-91 293,-137 483,-145 204,-8 349,23 519,110 170,86 318,218 443,393 l 64,90 -595,5 -596,5 -29,33 c -49,55 -42,84 95,385 117,257 201,419 234,450 16,16 47,33 68,38 22,4 462,9 980,9 h 942 l 7,28 c 11,44 82,217 124,300 202,400 535,784 881,1014 124,82 385,212 525,261 197,69 467,130 695,159 159,19 510,17 645,-5 376,-62 680,-195 967,-423 417,-333 645,-758 701,-1304 2,-19 5,380 5,888 l 2,922 H 6000 0 Z m 3182,-243 c -3,-28 -96,-167 -126,-188 -17,-12 -140,-14 -821,-14 -993,0 -1355,7 -1355,27 0,17 125,179 148,193 11,6 404,9 1087,7 l 1070,-2 z M 2755,2274 c 13,-13 15,-30 10,-88 -8,-98 -13,-114 -33,-123 -9,-5 -309,-6 -667,-3 -567,4 -650,7 -652,20 -5,25 90,183 117,197 19,10 161,13 617,13 532,0 593,-2 608,-16 z"
       id="path4" />
    <path
       d="m 9755,3363 c -222,-28 -481,-124 -644,-241 -321,-228 -533,-636 -534,-1022 -1,-506 364,-899 892,-960 330,-39 709,117 1000,410 245,246 382,631 341,957 -42,337 -233,613 -526,761 -152,77 -368,115 -529,95 z"
       id="path6" />
  </g>
  <path
     style="fill:#2962ff;stroke:#0000ff;stroke-width:0.167967"
     d="M 0.08398373,29.336897 C 0.33875991,84.806238 1.3486277,140.26866 2.144209,195.73222 c 5.9267347,-7.48245 11.823768,-17.52058 23.248942,-15.78486 95.711889,-1.10604 191.469629,-0.74039 287.176539,0.77508 3.39832,2.49886 -1.67408,9.52986 -2.14834,13.18534 -1.43735,6.05447 -5.12814,11.30391 -12.33097,9.02973 -99.33105,1.07295 -198.67126,0.4978 -298.00639627,0.64987 0,92.08773 0,184.1755 0,276.26324 C 331.50621,479.40608 662.93525,480.3821 994.3523,478.372 c 10.017,-0.2068 -12.00613,-1.63166 -15.31798,-2.79923 -65.19071,-9.58875 -123.99344,-50.00393 -157.56164,-105.31582 -7.49303,-11.34971 -10.45383,-25.99433 -17.69121,-36.77768 -35.2232,60.39151 -90.62061,112.82132 -160.03521,132.53725 -42.17469,13.18974 -87.81829,15.019 -131.24109,7.35008 C 438.69602,457.58042 372.03842,402.86501 352.84437,329.81254 343.67545,296.43591 342.78007,260.94789 347.74155,226.85072 368.82893,108.93037 477.21527,13.586252 597.77719,2.1941047 432.92491,0.01262719 268.0269,1.1168443 103.15606,0.65573116 68.798705,0.63292051 34.441343,0.61010971 0.08398373,0.58729906 c 0,9.58319894 0,19.16639894 0,28.74959794 z M 228.04881,122.69261 c 38.78143,0.645 77.76816,-1.34686 116.42096,1.58892 2.89733,3.76319 -3.95745,9.47215 -5.48785,13.31949 -4.72485,11.52219 -18.5189,8.37893 -28.49019,9.27052 -71.72309,0.97638 -143.62689,0.7255 -215.248439,-1.10831 0.864524,-9.03611 10.673389,-15.50264 15.381809,-23.07062 39.14123,0 78.28248,0 117.42371,0 z m 31.52023,113.11733 c 13.59755,0.27605 27.29284,-0.4611 40.78516,1.57699 -0.60469,7.68618 1.74689,19.46634 -4.59144,24.19481 -46.84012,-0.76145 -93.8055,0.93286 -140.5663,-1.71743 -6.66825,-1.73624 1.98283,-9.58286 3.03867,-13.14061 2.86355,-6.67767 8.65245,-11.0177 16.30555,-9.83461 28.31963,-1.11128 56.68995,-0.9969 85.02836,-1.07915 z"
     id="path839" />
  <path
     style="fill:#2962ff;stroke:#0000ff;stroke-width:0.167967"
     d="M 973.81084,0.78106965 C 868.30952,1.1826206 762.50549,0.34159305 657.19252,2.3014238 730.00601,11.492257 798.31119,60.912919 822.29917,129.88597 c -4.56243,7.16622 -16.20037,6.95005 -23.7279,10.08183 -33.1318,8.30825 -66.15346,18.20769 -99.80658,23.831 -14.70309,-6.48457 -23.79684,-21.54613 -38.65452,-28.35013 -32.44762,-18.51468 -74.69333,-16.50586 -106.21761,3.0109 -43.12496,22.74487 -74.57814,68.86525 -72.06228,117.78572 -3.63809,40.79514 25.39972,79.69928 63.13465,94.59583 22.0607,6.97943 46.6535,7.05406 69.05097,1.51439 30.00944,-9.5011 55.26985,-30.73411 71.98632,-56.70028 -42.29054,-1.19786 -84.73171,-0.0305 -126.92566,-2.93934 -11.16681,-3.81522 -5.04696,-18.31648 -1.7594,-25.74764 10.8448,-23.13136 19.72152,-47.8812 35.64068,-68.21024 18.05442,-2.95808 37.32068,-1.30743 55.82601,-2.23873 52.48254,-0.70971 104.97065,-0.88601 157.45593,-1.32664 27.26105,-75.71158 87.00928,-142.404995 165.3741,-169.167729 35.39982,-12.348347 72.78232,-20.3222673 110.53192,-18.4714879 31.4314,-1.4791537 63.0484,3.5436989 91.8046,16.3131799 52.4586,22.695754 97.5613,64.907978 115.6659,119.124387 3.6396,8.47173 5.1896,18.91466 8.2453,26.88327 2.5562,-55.18189 0.047,-110.614459 2.3004,-165.8527493 0.7004,-7.6864004 -17.1671,-1.3783873 -23.957,-3.41947383 -100.7981,0.0596776 -201.5961,0.1193552 -302.39416,0.17903278 z"
     id="path841" />
  <path
     style="fill:#2962ff;stroke:#0000ff;stroke-width:0.167967"
     d="m 1064.9864,123.09804 c -54.3429,2.45129 -106.48907,37.36417 -125.11648,88.12621 -9.52708,21.93408 -10.65207,46.76478 -6.46747,69.99062 9.63585,37.59834 42.57405,67.2442 81.20255,74.60765 43.7455,9.96602 88.9747,-11.49198 119.4172,-41.52057 37.1208,-36.7843 50.6851,-98.82338 21.2524,-143.93879 -15.7806,-23.37087 -40.3626,-41.22814 -68.9567,-45.68813 -7.0279,-1.26658 -14.1901,-1.77934 -21.3315,-1.57699 z"
     id="path843" />
  <path
     style="fill:#2962ff;stroke:#0000ff;stroke-width:0.167967"
     d="m 1296.0962,273.06159 c -15.6785,71.20601 -67.5047,131.02778 -130.5477,167.42378 -40.1925,23.32184 -86.1909,35.04671 -132.5108,38.39044 89.365,1.05138 178.7484,0.65045 268.1209,0.97481 -3.2529,-38.71565 -1.3579,-77.75088 -2.1088,-116.59328 -0.044,-34.14437 -0.087,-68.28875 -0.1307,-102.43311 -0.941,4.07912 -1.8819,8.15824 -2.8229,12.23736 z"
     id="path845" />
</svg>
