<?xml version="1.0" encoding="UTF-8" standalone="no"?>
<svg
   xmlns:dc="http://purl.org/dc/elements/1.1/"
   xmlns:cc="http://creativecommons.org/ns#"
   xmlns:rdf="http://www.w3.org/1999/02/22-rdf-syntax-ns#"
   xmlns:svg="http://www.w3.org/2000/svg"
   xmlns="http://www.w3.org/2000/svg"
   xmlns:sodipodi="http://sodipodi.sourceforge.net/DTD/sodipodi-0.dtd"
   xmlns:inkscape="http://www.inkscape.org/namespaces/inkscape"
   version="1.0"
   width="1200.000000pt"
   height="451.000000pt"
   viewBox="0 0 1200.000000 451.000000"
   preserveAspectRatio="xMidYMid meet"
   id="svg10"
   sodipodi:docname="go-programming.svg"
   inkscape:version="1.0.1 (3bc2e813f5, 2020-09-07)">
  <defs
     id="defs14" />
  <sodipodi:namedview
     pagecolor="#ffffff"
     bordercolor="#666666"
     borderopacity="1"
     objecttolerance="10"
     gridtolerance="10"
     guidetolerance="10"
     inkscape:pageopacity="0"
     inkscape:pageshadow="2"
     inkscape:window-width="1600"
     inkscape:window-height="822"
     id="namedview12"
     showgrid="false"
     inkscape:zoom="0.52249848"
     inkscape:cx="860.85445"
     inkscape:cy="453.77716"
     inkscape:window-x="-8"
     inkscape:window-y="-8"
     inkscape:window-maximized="1"
     inkscape:current-layer="svg10" />
  <metadata
     id="metadata2">
Created by potrace 1.16, written by Peter Selinger 2001-2019
<rdf:RDF>
  <cc:Work
     rdf:about="">
    <dc:format>image/svg+xml</dc:format>
    <dc:type
       rdf:resource="http://purl.org/dc/dcmitype/StillImage" />
  </cc:Work>
</rdf:RDF>
</metadata>
  <g
     transform="matrix(0.1000179,0,0,-0.10060969,0.07995858,454.16332)"
     fill="#000000"
     stroke="none"
     id="g8">
    <path
       d="m 0,3575 c 0,-514 2,-935 4,-935 2,0 28,33 59,73 30,40 62,81 72,90 15,16 112,17 1381,17 1177,0 1365,-2 1370,-14 3,-8 -7,-53 -22,-100 -25,-75 -32,-87 -57,-96 -20,-7 -492,-10 -1418,-10 H 0 V 1300 0 h 6000 6000 l -1,1118 c -1,986 -3,1105 -15,1017 -65,-482 -287,-928 -642,-1289 C 11101,601 10896,447 10627,311 10308,149 10022,67 9640,28 9446,9 9411,8 9275,18 8731,61 8287,252 7932,595 c -233,224 -382,454 -477,733 l -32,94 -33,-63 C 7225,1037 6891,665 6563,437 6419,336 6194,224 6015,162 5318,-77 4598,-9 4060,347 c -560,371 -848,887 -876,1573 -27,644 237,1282 747,1801 114,115 130,129 267,238 332,260 721,429 1168,507 201,35 510,44 694,20 218,-29 378,-77 575,-171 323,-154 571,-368 765,-659 61,-91 180,-325 180,-354 0,-10 -8,-26 -18,-35 -9,-8 -111,-40 -227,-70 -323,-84 -552,-144 -635,-167 -158,-43 -250,-62 -273,-56 -13,3 -58,44 -101,91 -125,137 -248,213 -441,272 -83,25 -103,27 -260,27 -156,0 -177,-2 -260,-27 -200,-61 -418,-194 -578,-354 -236,-235 -357,-536 -357,-888 0,-195 44,-357 142,-523 40,-69 193,-225 268,-275 140,-91 293,-137 483,-145 204,-8 349,23 519,110 170,86 318,218 443,393 l 64,90 -595,5 -596,5 -29,33 c -49,55 -42,84 95,385 117,257 201,419 234,450 16,16 47,33 68,38 22,4 462,9 980,9 h 942 l 7,28 c 11,44 82,217 124,300 202,400 535,784 881,1014 124,82 385,212 525,261 197,69 467,130 695,159 159,19 510,17 645,-5 376,-62 680,-195 967,-423 417,-333 645,-758 701,-1304 2,-19 5,380 5,888 l 2,922 H 6000 0 Z m 3182,-243 c -3,-28 -96,-167 -126,-188 -17,-12 -140,-14 -821,-14 -993,0 -1355,7 -1355,27 0,17 125,179 148,193 11,6 404,9 1087,7 l 1070,-2 z M 2755,2274 c 13,-13 15,-30 10,-88 -8,-98 -13,-114 -33,-123 -9,-5 -309,-6 -667,-3 -567,4 -650,7 -652,20 -5,25 90,183 117,197 19,10 161,13 617,13 532,0 593,-2 608,-16 z"
       id="path4" />
    <path
       d="m 9755,3363 c -222,-28 -481,-124 -644,-241 -321,-228 -533,-636 -534,-1022 -1,-506 364,-899 892,-960 330,-39 709,117 1000,410 245,246 382,631 341,957 -42,337 -233,613 -526,761 -152,77 -368,115 -529,95 z"
       id="path6" />
  </g>
  <path
     style="fill:#2962ff;stroke:#0000ff;stroke-width:0.15695"
     d="M 0.07820736,27.757123 C 0.31331018,80.240831 1.2451978,132.718 1.9793457,185.19623 7.4484287,178.11652 12.890103,168.61869 23.433046,170.261 c 88.321184,-1.04651 176.684694,-0.70055 265.001274,0.73335 3.13593,2.36436 -1.54479,9.01692 -1.98245,12.47565 -1.32635,5.72858 -4.73215,10.69546 -11.37879,8.5437 -91.66088,1.0152 -183.330217,0.47101 -274.99487264,0.6149 0,87.1311 0,174.26225 0,261.39337 C 305.9086,453.60136 611.74529,454.52485 917.57091,452.62294 c 9.24351,-0.19567 -11.07904,-1.54383 -14.13515,-2.64855 -60.15681,-9.07264 -114.4189,-47.31247 -145.39501,-99.64721 -6.91444,-10.73881 -9.6466,-24.59518 -16.32513,-34.79812 C 709.21229,372.67 658.09256,422.27778 594.03804,440.9325 555.12,453.4123 513.00092,455.1431 472.93116,447.88697 404.82141,432.95046 343.31099,381.18012 325.59907,312.05969 317.13816,280.47954 316.31191,246.90167 320.89028,214.63978 340.34933,103.06649 440.36627,12.854257 551.61862,2.0752902 399.49593,0.01123055 247.33106,1.0560132 95.191243,0.61971951 63.486901,0.59813664 31.782553,0.57655363 0.07820736,0.55497076 c 0,9.06738404 0,18.13476924 0,27.20215224 z M 210.44,116.08798 c 35.7868,0.61028 71.76304,-1.27437 107.43114,1.50339 2.6736,3.56064 -3.65186,8.96232 -5.06409,12.60257 -4.36,10.902 -17.0889,7.92793 -26.29022,8.77153 -66.18476,0.92383 -132.53628,0.68645 -198.627345,-1.04866 0.797766,-8.54974 9.849208,-14.6682 14.194055,-21.82883 36.11882,0 72.23765,0 108.35646,0 z m 29.0863,107.02879 c 12.54757,0.26119 25.18533,-0.43629 37.63579,1.49211 -0.55798,7.27247 1.61201,18.41856 -4.23689,22.89253 -43.22321,-0.72047 -86.562,0.88265 -129.71202,-1.62499 -6.15335,-1.64279 1.82972,-9.06707 2.80403,-12.43332 2.64242,-6.31825 7.98432,-10.42468 15.04646,-9.30527 26.13284,-1.05147 52.31246,-0.94324 78.46263,-1.02106 z"
     id="path839" />
  <path
     style="fill:#2962ff;stroke:#0000ff;stroke-width:0.15695"
     d="M 898.61563,0.73831166 C 801.26093,1.1182491 703.6269,0.32248985 606.446,2.1768329 673.63696,10.87297 736.66774,57.633569 758.80341,122.89416 c -4.21012,6.78048 -14.9494,6.57596 -21.89566,9.53917 -30.57343,7.86106 -61.04522,17.22765 -92.0997,22.5483 -13.56775,-6.13554 -21.95929,-20.38641 -35.6697,-26.82419 -29.94207,-17.51813 -68.92564,-15.61743 -98.01567,2.84883 -39.79493,21.52064 -68.81935,65.15859 -66.49776,111.44591 -3.35717,38.59935 23.4384,75.40949 58.2595,89.50423 20.35722,6.60376 43.05102,6.67437 63.71898,1.43288 27.69218,-8.9897 51.00202,-29.07985 66.42767,-53.6484 -39.02494,-1.13337 -78.18888,-0.0289 -117.12469,-2.78112 -10.30453,-3.60988 -4.65725,-17.3306 -1.62354,-24.36179 10.00738,-21.88631 18.19866,-45.30399 32.88857,-64.53882 16.66029,-2.79887 34.43884,-1.23706 51.51523,-2.11824 48.42993,-0.6715 96.865,-0.83832 145.29747,-1.25523 25.156,-71.6364 80.29057,-134.740053 152.60421,-160.062285 32.66631,-11.683698 67.1622,-19.2284226 101.99683,-17.4772614 29.00435,-1.3995383 58.17995,3.3529594 84.71565,15.4351254 48.4078,21.474156 90.0278,61.414311 106.7344,112.712531 3.3586,8.01573 4.7887,17.89657 7.6085,25.43627 2.3589,-52.21173 0.043,-104.66064 2.1228,-156.9257339 0.6463,-7.2726804 -15.8415,-1.3041955 -22.1071,-3.23542079 -93.0147,0.0564654 -186.02916,0.11293091 -279.04377,0.16939635 z"
     id="path841" />
  <path
     style="fill:#2962ff;stroke:#0000ff;stroke-width:0.15695"
     d="m 982.75077,116.47159 c -50.14663,2.31933 -98.26617,35.35304 -115.4552,83.38281 -8.79142,20.75349 -9.82954,44.24767 -5.96807,66.22338 8.89178,35.57462 39.28656,63.62478 74.93224,70.59191 40.36755,9.42959 82.10426,-10.87343 110.19606,-39.28573 34.2543,-34.8044 46.7713,-93.50423 19.6113,-136.1913 -14.5621,-22.11294 -37.2459,-39.00904 -63.632,-43.22897 -6.4852,-1.1984 -13.09437,-1.68357 -19.68433,-1.4921 z"
     id="path843" />
  <path
     style="fill:#2962ff;stroke:#0000ff;stroke-width:0.15695"
     d="m 1196.0147,258.36336 c -14.4679,67.37334 -62.2921,123.97521 -120.4671,158.4122 -37.0889,22.06655 -79.53537,33.16033 -122.27851,36.32408 82.46441,0.99478 164.94581,0.61543 247.41711,0.92233 -3.0018,-36.63177 -1.2531,-73.56594 -1.946,-110.31765 -0.04,-32.30655 -0.081,-64.61311 -0.1206,-96.91965 -0.8684,3.85956 -1.7366,7.71912 -2.6049,11.57869 z"
     id="path845" />
</svg>
