<?xml version="1.0" encoding="UTF-8" standalone="no"?>
<svg
   xmlns:ooo="http://xml.openoffice.org/svg/export"
   xmlns:dc="http://purl.org/dc/elements/1.1/"
   xmlns:cc="http://creativecommons.org/ns#"
   xmlns:rdf="http://www.w3.org/1999/02/22-rdf-syntax-ns#"
   xmlns:svg="http://www.w3.org/2000/svg"
   xmlns="http://www.w3.org/2000/svg"
   xmlns:sodipodi="http://sodipodi.sourceforge.net/DTD/sodipodi-0.dtd"
   xmlns:inkscape="http://www.inkscape.org/namespaces/inkscape"
   version="1.2"
   width="180.89mm"
   height="180.89mm"
   viewBox="0 0 18089 18089"
   preserveAspectRatio="xMidYMid"
   fill-rule="evenodd"
   stroke-width="28.222"
   stroke-linejoin="round"
   xml:space="preserve"
   id="svg92"
   sodipodi:docname="mobo-design.svg"
   inkscape:version="1.0.1 (3bc2e813f5, 2020-09-07)"><metadata
   id="metadata96"><rdf:RDF><cc:Work
       rdf:about=""><dc:format>image/svg+xml</dc:format><dc:type
         rdf:resource="http://purl.org/dc/dcmitype/StillImage" /></cc:Work></rdf:RDF></metadata><sodipodi:namedview
   pagecolor="#ffffff"
   bordercolor="#666666"
   borderopacity="1"
   objecttolerance="10"
   gridtolerance="10"
   guidetolerance="10"
   inkscape:pageopacity="0"
   inkscape:pageshadow="2"
   inkscape:window-width="1600"
   inkscape:window-height="822"
   id="namedview94"
   showgrid="false"
   inkscape:zoom="8.7885424"
   inkscape:cx="13.896769"
   inkscape:cy="21.675947"
   inkscape:window-x="-8"
   inkscape:window-y="-8"
   inkscape:window-maximized="1"
   inkscape:current-layer="g88" />
 <defs
   class="ClipPathGroup"
   id="defs8">
  <clipPath
   id="presentation_clip_path"
   clipPathUnits="userSpaceOnUse">
   <rect
   x="0"
   y="0"
   width="18089"
   height="18089"
   id="rect2" />
  </clipPath>
  <clipPath
   id="presentation_clip_path_shrink"
   clipPathUnits="userSpaceOnUse">
   <rect
   x="18"
   y="18"
   width="18053"
   height="18053"
   id="rect5" />
  </clipPath>
 </defs>
 <defs
   class="TextShapeIndex"
   id="defs12">
  <g
   ooo:slide="id1"
   ooo:id-list="id3"
   id="g10" />
 </defs>
 <defs
   class="EmbeddedBulletChars"
   id="defs44">
  <g
   id="bullet-char-template-57356"
   transform="scale(0.00048828125,-0.00048828125)">
   <path
   d="M 580,1141 L 1163,571 580,0 -4,571 580,1141 Z"
   id="path14" />
  </g>
  <g
   id="bullet-char-template-57354"
   transform="scale(0.00048828125,-0.00048828125)">
   <path
   d="M 8,1128 L 1137,1128 1137,0 8,0 8,1128 Z"
   id="path17" />
  </g>
  <g
   id="bullet-char-template-10146"
   transform="scale(0.00048828125,-0.00048828125)">
   <path
   d="M 174,0 L 602,739 174,1481 1456,739 174,0 Z M 1358,739 L 309,1346 659,739 1358,739 Z"
   id="path20" />
  </g>
  <g
   id="bullet-char-template-10132"
   transform="scale(0.00048828125,-0.00048828125)">
   <path
   d="M 2015,739 L 1276,0 717,0 1260,543 174,543 174,936 1260,936 717,1481 1274,1481 2015,739 Z"
   id="path23" />
  </g>
  <g
   id="bullet-char-template-10007"
   transform="scale(0.00048828125,-0.00048828125)">
   <path
   d="M 0,-2 C -7,14 -16,27 -25,37 L 356,567 C 262,823 215,952 215,954 215,979 228,992 255,992 264,992 276,990 289,987 310,991 331,999 354,1012 L 381,999 492,748 772,1049 836,1024 860,1049 C 881,1039 901,1025 922,1006 886,937 835,863 770,784 769,783 710,716 594,584 L 774,223 C 774,196 753,168 711,139 L 727,119 C 717,90 699,76 672,76 641,76 570,178 457,381 L 164,-76 C 142,-110 111,-127 72,-127 30,-127 9,-110 8,-76 1,-67 -2,-52 -2,-32 -2,-23 -1,-13 0,-2 Z"
   id="path26" />
  </g>
  <g
   id="bullet-char-template-10004"
   transform="scale(0.00048828125,-0.00048828125)">
   <path
   d="M 285,-33 C 182,-33 111,30 74,156 52,228 41,333 41,471 41,549 55,616 82,672 116,743 169,778 240,778 293,778 328,747 346,684 L 369,508 C 377,444 397,411 428,410 L 1163,1116 C 1174,1127 1196,1133 1229,1133 1271,1133 1292,1118 1292,1087 L 1292,965 C 1292,929 1282,901 1262,881 L 442,47 C 390,-6 338,-33 285,-33 Z"
   id="path29" />
  </g>
  <g
   id="bullet-char-template-9679"
   transform="scale(0.00048828125,-0.00048828125)">
   <path
   d="M 813,0 C 632,0 489,54 383,161 276,268 223,411 223,592 223,773 276,916 383,1023 489,1130 632,1184 813,1184 992,1184 1136,1130 1245,1023 1353,916 1407,772 1407,592 1407,412 1353,268 1245,161 1136,54 992,0 813,0 Z"
   id="path32" />
  </g>
  <g
   id="bullet-char-template-8226"
   transform="scale(0.00048828125,-0.00048828125)">
   <path
   d="M 346,457 C 273,457 209,483 155,535 101,586 74,649 74,723 74,796 101,859 155,911 209,963 273,989 346,989 419,989 480,963 531,910 582,859 608,796 608,723 608,648 583,586 532,535 482,483 420,457 346,457 Z"
   id="path35" />
  </g>
  <g
   id="bullet-char-template-8211"
   transform="scale(0.00048828125,-0.00048828125)">
   <path
   d="M -4,459 L 1135,459 1135,606 -4,606 -4,459 Z"
   id="path38" />
  </g>
  <g
   id="bullet-char-template-61548"
   transform="scale(0.00048828125,-0.00048828125)">
   <path
   d="M 173,740 C 173,903 231,1043 346,1159 462,1274 601,1332 765,1332 928,1332 1067,1274 1183,1159 1299,1043 1357,903 1357,740 1357,577 1299,437 1183,322 1067,206 928,148 765,148 601,148 462,206 346,322 231,437 173,577 173,740 Z"
   id="path41" />
  </g>
 </defs>
 <g
   id="g49">
  <g
   id="id2"
   class="Master_Slide">
   <g
   id="bg-id2"
   class="Background" />
   <g
   id="bo-id2"
   class="BackgroundObjects" />
  </g>
 </g>
 <g
   class="SlideGroup"
   id="g90">
  <g
   id="g88">
   <g
   id="container-id1"
   transform="matrix(0.10241558,0,0,0.10268815,0,-2.8752682)">
    <g
   id="id1"
   class="Slide"
   clip-path="url(#presentation_clip_path)">
     <g
   class="Page"
   id="g84">
      <g
   class="Graphic"
   id="g82">
       <g
   id="id3">
        <rect
   class="BoundingBox"
   stroke="none"
   fill="none"
   x="-6"
   y="28"
   width="18090"
   height="18036"
   id="rect51" />
        <path
   fill="#000000"
   stroke="none"
   d="m 16880,4191 c -124,-351 -385,-605 -737,-717 -156,-53 -829,-56 -7176,-49 l -7002,10 -176,88 c -226,109 -438,320 -547,545 l -88,176 v 4801 4801 l 88,176 c 109,225 321,436 547,545 l 176,88 h 7073 7073 l 176,-88 c 226,-109 438,-320 547,-545 l 88,-176 7,-4748 c 7,-4249 4,-4766 -49,-4907 z m -593,9630 c -38,64 -127,151 -194,194 l -123,77 H 9038 2106 l -123,-77 c -67,-43 -156,-130 -194,-194 -71,-116 -71,-179 -71,-4776 0,-4597 0,-4660 71,-4776 38,-64 127,-151 194,-194 l 123,-77 6858,-11 c 4639,-3 6900,4 6992,29 162,45 335,211 381,362 21,67 31,1969 28,4720 -7,4540 -7,4607 -78,4723 z"
   id="path53" />
        <path
   fill="#000000"
   stroke="none"
   d="m 15730,4620 c -187,-175 -483,-45 -483,208 0,165 120,278 285,278 251,0 378,-317 198,-486 z"
   id="path55" />
        <path
   fill="#000000"
   stroke="none"
   d="m 15529,6794 h -282 v 422 422 h -565 -564 v -141 -140 h -282 -283 v -844 -844 h -282 -282 v 844 844 h -282 -282 v -844 -844 h -565 -564 v -282 -281 h -283 -282 v 563 562 h 565 564 v 563 563 h -282 -282 v 140 141 h -565 -564 v -422 -422 h -282 -283 v 703 704 h 847 847 v 141 140 h -847 -847 v 282 281 h 847 847 v 141 140 h -847 -847 v 704 703 h 283 282 v -422 -422 h 564 565 v 141 140 h 282 282 v 845 844 h 282 283 v -844 -845 h 282 282 v 845 844 h 282 282 v -844 -845 h 283 282 v -140 -141 h 564 565 v 422 422 h 282 282 v -703 -704 h -847 -846 v -140 -141 h 846 847 v -281 -282 h -847 -846 v -140 -141 h 846 847 v -704 -703 z m -2822,2814 h -847 v -844 -844 h 847 846 v 844 844 z"
   id="path57" />
        <path
   fill="#000000"
   stroke="none"
   d="m 15730,13062 c -187,-176 -483,-46 -483,207 0,165 120,278 285,278 251,0 378,-317 198,-485 z"
   id="path59" />
        <path
   fill="#000000"
   stroke="none"
   d="m 9320,11859 h -282 v 281 281 h 282 282 v -281 -281 z"
   id="path61" />
        <path
   fill="#000000"
   stroke="none"
   d="m 9320,12984 h -282 v 282 281 h 282 282 v -281 -282 z"
   id="path63" />
        <path
   fill="#000000"
   stroke="none"
   d="m 7627,5106 h -847 v 2814 2813 h 847 847 V 7920 5106 Z m 0,5064 H 7345 V 7920 5669 h 282 282 v 2251 2250 z"
   id="path65" />
        <path
   fill="#000000"
   stroke="none"
   d="m 8191,11859 h -282 v 281 281 h 282 283 v -281 -281 z"
   id="path67" />
        <path
   fill="#000000"
   stroke="none"
   d="m 8191,12984 h -282 v 282 281 h 282 283 v -281 -282 z"
   id="path69" />
        <path
   fill="#000000"
   stroke="none"
   d="m 7063,11859 h -283 v 281 281 h 283 282 v -281 -281 z"
   id="path71" />
        <path
   fill="#000000"
   stroke="none"
   d="m 7063,12984 h -283 v 282 281 h 283 282 v -281 -282 z"
   id="path73" />
        <path
   fill="#000000"
   stroke="none"
   d="m 4240,5106 h -846 v 3376 3377 h 846 847 V 8482 5106 Z m 0,6190 H 3958 V 8482 5669 h 282 283 v 2813 2814 z"
   id="path75" />
        <path
   fill="#000000"
   stroke="none"
   d="m 2748,4620 c -187,-175 -483,-45 -483,208 0,165 120,278 286,278 250,0 377,-317 197,-486 z"
   id="path77" />
        <path
   fill="#000000"
   stroke="none"
   d="m 2748,13062 c -187,-176 -483,-46 -483,207 0,165 120,278 286,278 250,0 377,-317 197,-485 z"
   id="path79" />
       </g>
      </g>
     </g>
    </g>
   </g>
  <path
   style="fill:#2962ff;stroke:#0000ff;stroke-width:0.0216384"
   d="m 26.298927,30.592295 c 0,3.606404 0,7.212808 0,10.819213 2.117522,0 4.235043,0 6.352565,0 0,-7.212809 0,-14.425617 0,-21.638425 -2.117522,0 -4.235043,0 -6.352565,0 0,3.606404 0,7.212808 0,10.819212 z m 3.176282,-8.834036 c 1.8071,-0.54982 1.039539,1.475018 1.191106,2.58073 0,5.029114 0,10.058228 0,15.087342 -1.236308,-0.02097 -2.953096,0.438539 -2.382211,-1.389624 0,-5.426149 0,-10.852298 0,-16.278448 0.397035,0 0.79407,0 1.191105,0 z"
   id="path921"
   transform="scale(26.458334)" /><path
   style="fill:#2962ff;stroke:#0000ff;stroke-width:0.0124025"
   d="m 13.214062,32.826829 c 0,4.36174 0,8.72348 0,13.085219 2.123978,0 4.247955,0 6.371933,0 0,-8.723479 0,-17.446958 0,-26.170437 -2.123978,0 -4.247955,0 -6.371933,0 0,4.361739 0,8.723479 0,13.085218 z m 3.185967,-11.037097 c 0.88334,-0.162705 1.379253,0.06202 1.137845,1.02406 0,6.978784 0,13.957567 0,20.93635 -0.758564,0 -1.517127,0 -2.275691,0 0,-7.320136 0,-14.640273 0,-21.96041 0.379282,0 0.758564,0 1.137846,0 z"
   id="path923"
   transform="scale(26.458334)" /><path
   style="fill:#2962ff;stroke:#0000ff;stroke-width:0.0124025"
   d="m 6.8459076,13.701031 c -1.0632343,0.654002 -2.1131792,1.69348 -2.2794682,2.960842 0,12.337545 0,24.67509 0,37.012634 0.6033516,1.359501 1.723426,2.550297 3.129074,3.042856 18.1887056,0.0015 36.3774126,0.0029 54.5661176,0.0042 1.355396,-0.527711 2.459539,-1.546141 3.08108,-2.862855 0.235306,-1.02601 0.03271,-2.171903 0.09743,-3.244614 C 65.421511,39.20438 65.402891,27.794667 65.384261,16.384954 64.845303,14.93094 63.606887,13.647605 62.08451,13.312531 43.923879,13.29217 25.763249,13.271809 7.6026191,13.251449 7.3503819,13.401309 7.0981448,13.55117 6.8459076,13.701031 Z m 28.0874404,1.626763 c 8.936602,0.01104 17.873206,0.02207 26.809808,0.03311 0.860454,0.427795 1.827311,1.196153 1.592983,2.27569 -0.02816,11.095413 0.05903,22.191614 -0.04672,33.286515 -0.113658,1.005714 0.122,2.175269 -0.44998,3.059636 -0.558275,0.366425 -1.052929,0.866995 -1.778995,0.685231 -17.649636,0.0017 -35.299274,0.0035 -52.9489109,0.0055 -0.6937453,-0.546381 -1.6941777,-1.146963 -1.4400853,-2.178573 0,-11.936263 0,-23.872524 0,-35.808787 0.4359384,-0.557627 0.9833801,-1.244419 1.679877,-1.391134 8.8606732,0.01094 17.7213452,0.02189 26.5820182,0.03283 z"
   id="path925"
   transform="scale(26.458334)" /><path
   style="fill:#2962ff;stroke:#0000ff;stroke-width:0.0124025"
   d="m 9.7936376,50.351866 c -1.0989782,0.0011 -1.265643,1.782489 -0.2204575,2.012564 1.0153489,0.343975 1.7497859,-1.072603 0.9818359,-1.746103 -0.193574,-0.206584 -0.485308,-0.285199 -0.7613784,-0.266461 z"
   id="path927"
   transform="scale(26.458334)" /><path
   style="fill:#2962ff;stroke:#0000ff;stroke-width:0.0124025"
   d="m 59.994608,50.3512 c -0.819185,0.109214 -1.289943,1.294164 -0.50803,1.793439 0.852946,0.865245 2.237414,-0.696075 1.353858,-1.486532 -0.219653,-0.220252 -0.539153,-0.320059 -0.845828,-0.306907 z"
   id="path929"
   transform="scale(26.458334)" /><path
   style="fill:#2962ff;stroke:#0000ff;stroke-width:0.0124025"
   d="m 59.988608,17.60504 c -0.900815,0.06208 -1.266173,1.462558 -0.383134,1.858999 0.900966,0.685209 2.136199,-0.927835 1.161847,-1.58965 -0.21363,-0.182305 -0.49519,-0.29551 -0.778713,-0.269349 z"
   id="path931"
   transform="scale(26.458334)" /><path
   style="fill:#2962ff;stroke:#0000ff;stroke-width:0.0124025"
   d="m 9.8680865,17.591706 c -1.114531,-0.05469 -1.4015437,1.780071 -0.296462,2.00234 0.9760085,0.332217 1.7565735,-0.995495 1.0353945,-1.693878 -0.179437,-0.214491 -0.459856,-0.332929 -0.7389325,-0.308462 z"
   id="path933"
   transform="scale(26.458334)" /><path
   style="fill:#2962ff;stroke:#0000ff;stroke-width:0.0124025"
   d="m 41.546406,21.903516 c 0,0.720636 0,1.441271 0,2.161906 1.479198,0 2.958397,0 4.437595,0 0,1.479199 0,2.958397 0,4.437596 -0.720635,0 -1.44127,0 -2.161905,0 0.162705,0.88334 -0.06202,1.379253 -1.024061,1.137845 -1.175773,0 -2.351546,0 -3.52732,0 0,-1.099917 0,-2.199834 0,-3.299751 -0.64633,0.07431 -1.590907,-0.149637 -2.048121,0.113785 0,1.744696 0,3.489391 0,5.234087 2.199834,0 4.399668,0 6.599502,0 0.162705,0.88334 -0.06202,1.379254 -1.024061,1.137845 -1.85848,0 -3.716961,0 -5.575441,0 0,0.720635 0,1.441271 0,2.161906 2.199834,0 4.399668,0 6.599502,0 0.162705,0.88334 -0.06202,1.379254 -1.024061,1.137845 -1.85848,0 -3.716961,0 -5.575441,0 0,1.782625 0,3.565248 0,5.347872 0.646331,-0.0743 1.590908,0.149637 2.048121,-0.113784 0,-1.061989 0,-2.123978 0,-3.185967 1.517127,0 3.034254,0 4.551381,0 -0.162705,0.88334 0.06202,1.379254 1.02406,1.137846 0.793604,-0.110897 1.410031,-0.04462 1.137845,0.910276 0,1.896409 0,3.792816 0,5.689225 0.646331,-0.0743 1.590908,0.149637 2.048122,-0.113784 0,-2.161906 0,-4.323812 0,-6.485717 0.758563,0 1.517126,0 2.27569,0 0,2.199833 0,4.399668 0,6.599501 0.64633,-0.0743 1.590908,0.149637 2.048121,-0.113784 0,-2.161906 0,-4.323812 0,-6.485717 0.758564,0 1.517127,0 2.27569,0 -0.162705,-0.88334 0.06202,-1.379254 1.024061,-1.137846 1.137845,0 2.27569,0 3.413535,0 0,1.099918 0,2.199834 0,3.299751 0.64633,-0.0743 1.590908,0.149637 2.048121,-0.113784 0,-1.744696 0,-3.489392 0,-5.234088 -2.161905,0 -4.323811,0 -6.485717,0 -0.162705,-0.88334 0.06202,-1.379254 1.024061,-1.137845 1.820552,0 3.641104,0 5.461656,0 0,-0.720635 0,-1.441271 0,-2.161906 -2.161905,0 -4.323811,0 -6.485717,0 -0.162705,-0.88334 0.06202,-1.379253 1.024061,-1.137845 1.820552,0 3.641104,0 5.461656,0 0,-1.782624 0,-3.565248 0,-5.347872 -0.64633,0.07431 -1.590907,-0.149637 -2.048121,0.113785 0,1.061988 0,2.123977 0,3.185966 -1.479198,0 -2.958397,0 -4.437596,0 0.162705,-0.88334 -0.06202,-1.379253 -1.02406,-1.137845 -0.795208,0.07457 -1.55131,0.110039 -1.25163,-0.910276 0,-1.896409 0,-3.792817 0,-5.689226 -0.64633,0.0743 -1.590908,-0.149637 -2.048121,0.113785 0,2.161906 0,4.323811 0,6.485717 -0.758564,0 -1.517127,0 -2.27569,0 0,-2.199834 0,-4.399668 0,-6.599502 -1.441271,0 -2.882541,0 -4.323812,0 0,-0.720635 0,-1.44127 0,-2.161905 -0.720635,0 -1.44127,0 -2.161905,0 0,0.720635 0,1.44127 0,2.161905 z m 7.623562,8.647623 c 1.099917,0 2.199833,0 3.299751,0 0,2.237763 0,4.475524 0,6.713286 -2.199834,0 -4.399668,0 -6.599502,0 0,-2.237762 0,-4.475523 0,-6.713286 1.099917,0 2.199834,0 3.299751,0 z"
   id="path935"
   transform="scale(26.458334)" /><path
   style="fill:#2962ff;stroke:#0000ff;stroke-width:0.0124025"
   d="m 30.623092,47.049893 c -0.217948,0.91962 0.200937,1.202406 1.080953,1.024061 0.886652,0.18498 1.305141,-0.0982 1.080953,-1.024061 0.217949,-0.91962 -0.200936,-1.202406 -1.080953,-1.02406 -1.018212,-0.07759 -1.220783,-0.09325 -1.080953,1.02406 z"
   id="path937"
   transform="scale(26.458334)" /><path
   style="fill:#2962ff;stroke:#0000ff;stroke-width:0.0124025"
   d="m 26.299281,47.049893 c -0.241408,0.962044 0.254505,1.186766 1.137845,1.024061 1.020315,0.299679 0.984849,-0.456421 0.910276,-1.25163 0.327215,-1.04785 -0.656798,-0.784472 -1.365414,-0.796491 -0.94558,-0.194958 -0.637987,0.328277 -0.682707,1.02406 z"
   id="path939"
   transform="scale(26.458334)" /><path
   style="fill:#2962ff;stroke:#0000ff;stroke-width:0.0124025"
   d="m 26.299281,51.373705 c -0.241408,0.962043 0.254505,1.186765 1.137845,1.02406 1.020315,0.29968 0.984849,-0.456421 0.910276,-1.251629 0.327215,-1.04785 -0.656798,-0.784472 -1.365414,-0.796492 -0.94558,-0.194957 -0.637987,0.328277 -0.682707,1.024061 z"
   id="path941"
   transform="scale(26.458334)" /><path
   style="fill:#2962ff;stroke:#0000ff;stroke-width:0.0124025"
   d="m 30.623092,51.373705 c -0.217948,0.91962 0.200937,1.202406 1.080953,1.02406 0.886652,0.184981 1.305141,-0.0982 1.080953,-1.02406 0.217949,-0.91962 -0.200936,-1.202406 -1.080953,-1.024061 -1.018212,-0.07759 -1.220783,-0.09325 -1.080953,1.024061 z"
   id="path943"
   transform="scale(26.458334)" /><path
   style="fill:#2962ff;stroke:#0000ff;stroke-width:0.0124025"
   d="m 35.060688,51.373705 c -0.241408,0.962043 0.254505,1.186765 1.137845,1.02406 1.020315,0.29968 0.98485,-0.456421 0.910277,-1.251629 0.327214,-1.04785 -0.656799,-0.784472 -1.365415,-0.796492 -0.94558,-0.194957 -0.637987,0.328277 -0.682707,1.024061 z"
   id="path945"
   transform="scale(26.458334)" /><path
   style="fill:#2962ff;stroke:#0000ff;stroke-width:0.0124025"
   d="m 35.060688,47.049893 c -0.241408,0.962044 0.254505,1.186766 1.137845,1.024061 1.020315,0.299679 0.98485,-0.456421 0.910277,-1.25163 0.327214,-1.04785 -0.656799,-0.784472 -1.365415,-0.796491 -0.94558,-0.194958 -0.637987,0.328277 -0.682707,1.02406 z"
   id="path947"
   transform="scale(26.458334)" /></g>
 </g>
</svg>
