<?xml version="1.0" encoding="UTF-8" standalone="no"?>
<svg
   xmlns:ooo="http://xml.openoffice.org/svg/export"
   xmlns:dc="http://purl.org/dc/elements/1.1/"
   xmlns:cc="http://creativecommons.org/ns#"
   xmlns:rdf="http://www.w3.org/1999/02/22-rdf-syntax-ns#"
   xmlns:svg="http://www.w3.org/2000/svg"
   xmlns="http://www.w3.org/2000/svg"
   xmlns:sodipodi="http://sodipodi.sourceforge.net/DTD/sodipodi-0.dtd"
   xmlns:inkscape="http://www.inkscape.org/namespaces/inkscape"
   version="1.2"
   width="180.89mm"
   height="180.89mm"
   viewBox="0 0 18089 18089"
   preserveAspectRatio="xMidYMid"
   fill-rule="evenodd"
   stroke-width="28.222"
   stroke-linejoin="round"
   xml:space="preserve"
   id="svg92"
   sodipodi:docname="mobo-design.svg"
   inkscape:version="1.0.1 (3bc2e813f5, 2020-09-07)"><metadata
   id="metadata96"><rdf:RDF><cc:Work
       rdf:about=""><dc:format>image/svg+xml</dc:format><dc:type
         rdf:resource="http://purl.org/dc/dcmitype/StillImage" /></cc:Work></rdf:RDF></metadata><sodipodi:namedview
   pagecolor="#ffffff"
   bordercolor="#666666"
   borderopacity="1"
   objecttolerance="10"
   gridtolerance="10"
   guidetolerance="10"
   inkscape:pageopacity="0"
   inkscape:pageshadow="2"
   inkscape:window-width="1600"
   inkscape:window-height="822"
   id="namedview94"
   showgrid="false"
   inkscape:zoom="0.67178375"
   inkscape:cx="213.84773"
   inkscape:cy="357.92582"
   inkscape:window-x="-8"
   inkscape:window-y="-8"
   inkscape:window-maximized="1"
   inkscape:current-layer="g88"
   inkscape:document-rotation="0" />
 <defs
   class="ClipPathGroup"
   id="defs8">
  <clipPath
   id="presentation_clip_path"
   clipPathUnits="userSpaceOnUse">
   <rect
   x="0"
   y="0"
   width="18089"
   height="18089"
   id="rect2" />
  </clipPath>
  <clipPath
   id="presentation_clip_path_shrink"
   clipPathUnits="userSpaceOnUse">
   <rect
   x="18"
   y="18"
   width="18053"
   height="18053"
   id="rect5" />
  </clipPath>
 </defs>
 <defs
   class="TextShapeIndex"
   id="defs12">
  <g
   ooo:slide="id1"
   ooo:id-list="id3"
   id="g10" />
 </defs>
 <defs
   class="EmbeddedBulletChars"
   id="defs44">
  <g
   id="bullet-char-template-57356"
   transform="scale(0.00048828125,-0.00048828125)">
   <path
   d="M 580,1141 L 1163,571 580,0 -4,571 580,1141 Z"
   id="path14" />
  </g>
  <g
   id="bullet-char-template-57354"
   transform="scale(0.00048828125,-0.00048828125)">
   <path
   d="M 8,1128 L 1137,1128 1137,0 8,0 8,1128 Z"
   id="path17" />
  </g>
  <g
   id="bullet-char-template-10146"
   transform="scale(0.00048828125,-0.00048828125)">
   <path
   d="M 174,0 L 602,739 174,1481 1456,739 174,0 Z M 1358,739 L 309,1346 659,739 1358,739 Z"
   id="path20" />
  </g>
  <g
   id="bullet-char-template-10132"
   transform="scale(0.00048828125,-0.00048828125)">
   <path
   d="M 2015,739 L 1276,0 717,0 1260,543 174,543 174,936 1260,936 717,1481 1274,1481 2015,739 Z"
   id="path23" />
  </g>
  <g
   id="bullet-char-template-10007"
   transform="scale(0.00048828125,-0.00048828125)">
   <path
   d="M 0,-2 C -7,14 -16,27 -25,37 L 356,567 C 262,823 215,952 215,954 215,979 228,992 255,992 264,992 276,990 289,987 310,991 331,999 354,1012 L 381,999 492,748 772,1049 836,1024 860,1049 C 881,1039 901,1025 922,1006 886,937 835,863 770,784 769,783 710,716 594,584 L 774,223 C 774,196 753,168 711,139 L 727,119 C 717,90 699,76 672,76 641,76 570,178 457,381 L 164,-76 C 142,-110 111,-127 72,-127 30,-127 9,-110 8,-76 1,-67 -2,-52 -2,-32 -2,-23 -1,-13 0,-2 Z"
   id="path26" />
  </g>
  <g
   id="bullet-char-template-10004"
   transform="scale(0.00048828125,-0.00048828125)">
   <path
   d="M 285,-33 C 182,-33 111,30 74,156 52,228 41,333 41,471 41,549 55,616 82,672 116,743 169,778 240,778 293,778 328,747 346,684 L 369,508 C 377,444 397,411 428,410 L 1163,1116 C 1174,1127 1196,1133 1229,1133 1271,1133 1292,1118 1292,1087 L 1292,965 C 1292,929 1282,901 1262,881 L 442,47 C 390,-6 338,-33 285,-33 Z"
   id="path29" />
  </g>
  <g
   id="bullet-char-template-9679"
   transform="scale(0.00048828125,-0.00048828125)">
   <path
   d="M 813,0 C 632,0 489,54 383,161 276,268 223,411 223,592 223,773 276,916 383,1023 489,1130 632,1184 813,1184 992,1184 1136,1130 1245,1023 1353,916 1407,772 1407,592 1407,412 1353,268 1245,161 1136,54 992,0 813,0 Z"
   id="path32" />
  </g>
  <g
   id="bullet-char-template-8226"
   transform="scale(0.00048828125,-0.00048828125)">
   <path
   d="M 346,457 C 273,457 209,483 155,535 101,586 74,649 74,723 74,796 101,859 155,911 209,963 273,989 346,989 419,989 480,963 531,910 582,859 608,796 608,723 608,648 583,586 532,535 482,483 420,457 346,457 Z"
   id="path35" />
  </g>
  <g
   id="bullet-char-template-8211"
   transform="scale(0.00048828125,-0.00048828125)">
   <path
   d="M -4,459 L 1135,459 1135,606 -4,606 -4,459 Z"
   id="path38" />
  </g>
  <g
   id="bullet-char-template-61548"
   transform="scale(0.00048828125,-0.00048828125)">
   <path
   d="M 173,740 C 173,903 231,1043 346,1159 462,1274 601,1332 765,1332 928,1332 1067,1274 1183,1159 1299,1043 1357,903 1357,740 1357,577 1299,437 1183,322 1067,206 928,148 765,148 601,148 462,206 346,322 231,437 173,577 173,740 Z"
   id="path41" />
  </g>
 </defs>
 <g
   id="g49">
  <g
   id="id2"
   class="Master_Slide">
   <g
   id="bg-id2"
   class="Background" />
   <g
   id="bo-id2"
   class="BackgroundObjects" />
  </g>
 </g>
 <g
   class="SlideGroup"
   id="g90">
  <g
   id="g88">
   <g
   id="container-id1"
   transform="matrix(0.87784786,0,0,0.88018411,232.38886,28.225996)">
    
   </g>
  <path
   style="fill:#2962ff;stroke:#0000ff;stroke-width:4.44801"
   d="M 11817.942,3.4127318 C 8231.0705,8.2519734 4644.2129,20.604177 1057.3488,29.144499 572.08971,273.09577 124.63784,712.63136 2.2240063,1271.1157 c 0,4464.8846 0,8929.7693 0,13394.6553 204.8188637,523.909 586.3575437,956.026 1087.3419937,1175.511 520.4413,62.991 1069.0327,8.81 1600.24,26.987 5780.7124,0.534 11561.422,1.125 17342.136,1.734 508.74,-217.439 958.779,-640.229 1132.502,-1191.979 0,-4490.563 0,-8981.1249 0,-13471.686 C 20985.291,744.33009 20704.481,295.42467 20238.166,116.43173 19927.082,-46.905721 19551.94,71.163548 19213.528,27.867999 16748.55,-8.9253761 14283.096,5.2740388 11817.942,3.4127318 Z M 10589.789,781.72826 c 3113.452,3.59416 6226.903,7.18847 9340.357,10.78278 303.653,169.67179 598.711,482.41486 517.544,872.17366 -10.027,4254.0674 21.65,8508.7573 -34.698,12762.3953 -5.915,291.426 -260.22,512.823 -462.707,648.271 -6247.458,0 -12494.9206,0 -18742.3817,0 -223.69012,-187.378 -481.71949,-421.71 -423.9005,-758.712 C 721.11947,10547.459 711.48501,6776.8783 750.15088,3007.3307 785.92013,2382.4087 712.001,1737.4418 858.11319,1126.5297 991.9907,935.79037 1206.0049,726.8266 1448.4322,771.17533 c 3047.1188,3.51774 6094.2374,7.03533 9141.3568,10.55293 z"
   id="path924" /><path
   style="fill:#2962ff;stroke:#0000ff;stroke-width:4.44801"
   d="m 1854.4471,1581.2003 c -359.0546,2.888 -474.7386,600.9989 -117.6596,720.3995 349.8663,165.4562 693.7977,-429.1721 342.4023,-645.5738 -66.1419,-46.0522 -144.2697,-78.519 -224.7427,-74.8257 z"
   id="path926" /><path
   style="fill:#2962ff;stroke:#0000ff;stroke-width:4.44801"
   d="m 1857.48,13528.441 c -299.5596,20.99 -475.9308,470.958 -196.2027,659.214 288.7618,312.968 785.0303,-238.612 468.2271,-525.331 -69.4116,-77.971 -167.2168,-140.114 -272.0244,-133.883 z"
   id="path928" /><path
   style="fill:#2962ff;stroke:#0000ff;stroke-width:4.44801"
   d="m 3028.2425,7128.8211 c 0,1589.3057 0,3178.6109 0,4767.9179 743.2326,0 1486.4651,0 2229.6977,0 0,-3178.6122 0,-6357.2239 0,-9535.8344 -743.2326,0 -1486.4651,0 -2229.6977,0 0,1589.3055 0,3178.6105 0,4767.9165 z M 4143.0911,3113.7334 c 309.1026,-59.8054 482.6348,22.7958 398.1605,376.4146 0,2551.2533 0,5102.5071 0,7653.76 -265.4403,0 -530.8806,0 -796.3208,0 0,-2676.7246 0,-5353.4497 0,-8030.1746 132.72,0 265.4402,0 398.1603,0 z"
   id="path930" /><path
   style="fill:#2962ff;stroke:#0000ff;stroke-width:4.44801"
   d="m 7567.2691,6334.1681 c 0,1324.4217 0,2648.8426 0,3973.2639 743.2333,0 1486.4652,0 2229.6984,0 0,-2648.8422 0,-5297.6852 0,-7946.5274 -743.2332,0 -1486.4651,0 -2229.6984,0 0,1324.4213 0,2648.8422 0,3973.2635 z m 1513.0095,-1.5524 c 0,1073.9955 0,2147.9907 0,3221.9864 -265.5959,0 -531.1918,0 -796.7874,0 6.7915,-2139.9859 13.5833,-4279.9715 20.3751,-6419.9571 258.8029,-8.0213 517.6067,-15.999 776.4123,-23.9345 0,1073.9686 0,2147.9368 0,3221.9052 z"
   id="path932" /><path
   style="fill:#2962ff;stroke:#0000ff;stroke-width:4.44801"
   d="m 7567.2691,12314.977 c -84.4741,353.619 89.058,436.217 398.1608,376.415 357.0332,110.152 344.6233,-167.768 318.5282,-460.063 114.5007,-385.16 -229.8298,-288.349 -477.7921,-292.769 -330.8825,-71.66 -223.2473,120.667 -238.8969,376.417 z"
   id="path934" /><path
   style="fill:#2962ff;stroke:#0000ff;stroke-width:4.44801"
   d="m 7567.2691,13904.281 c -84.4741,353.62 89.058,436.22 398.1608,376.414 357.0332,110.156 344.6233,-167.766 318.5282,-460.063 114.5007,-385.157 -229.8298,-288.345 -477.7921,-292.764 -330.8825,-71.66 -223.2473,120.665 -238.8969,376.413 z"
   id="path936" /><path
   style="fill:#2962ff;stroke:#0000ff;stroke-width:4.44801"
   d="m 9080.2786,12314.977 c -84.4744,353.619 89.0577,436.217 398.1604,376.415 357.0331,110.152 344.6235,-167.768 318.5285,-460.063 114.5003,-385.16 -229.8301,-288.349 -477.7929,-292.769 -330.8819,-71.66 -223.2471,120.667 -238.896,376.417 z"
   id="path938" /><path
   style="fill:#2962ff;stroke:#0000ff;stroke-width:4.44801"
   d="m 9080.2786,13904.281 c -84.4744,353.62 89.0577,436.22 398.1604,376.414 357.0331,110.156 344.6235,-167.766 318.5285,-460.063 114.5003,-385.157 -229.8301,-288.345 -477.7929,-292.764 -330.8819,-71.66 -223.2471,120.665 -238.896,376.413 z"
   id="path940" /><path
   style="fill:#2962ff;stroke:#0000ff;stroke-width:4.44801"
   d="m 10593.287,12314.977 c -84.474,353.619 89.058,436.217 398.161,376.415 357.033,110.152 344.622,-167.768 318.527,-460.063 114.502,-385.16 -229.829,-288.349 -477.792,-292.769 -330.881,-71.66 -223.247,120.667 -238.896,376.417 z"
   id="path942" /><path
   style="fill:#2962ff;stroke:#0000ff;stroke-width:4.44801"
   d="m 10593.287,13904.281 c -84.474,353.62 89.058,436.22 398.161,376.414 357.033,110.156 344.622,-167.766 318.527,-460.063 114.502,-385.157 -229.829,-288.345 -477.792,-292.764 -330.881,-71.66 -223.247,120.665 -238.896,376.413 z"
   id="path944" /><path
   style="fill:#2962ff;stroke:#0000ff;stroke-width:4.44801"
   d="m 12902.617,3155.5575 c 0,264.8841 0,529.7684 0,794.6526 504.336,0 1008.674,0 1513.008,0 0,543.7101 0,1087.4195 0,1631.1287 -252.168,0 -504.334,0 -756.504,0 66.485,320.7809 -47.753,451.7249 -358.344,376.4146 -398.16,0 -796.321,0 -1194.48,0 0,-390.3555 0,-780.7114 0,-1171.067 -252.17,0 -504.338,0 -756.505,0 0,641.2985 0,1282.5974 0,1923.8959 769.777,0 1539.553,0 2309.329,0 4.444,255.6113 71.755,577.2603 -278.711,460.0621 -676.872,0 -1353.745,0 -2030.618,0 25.999,237.572 -52.361,584.7712 39.816,752.8293 756.505,0 1513.009,0 2269.513,0 56.935,324.6896 -21.7,506.9723 -358.344,418.238 -650.328,0 -1300.656,0 -1950.985,0 0,655.2402 0,1310.4804 0,1965.7203 252.167,0 504.335,0 756.505,0 0,-404.2972 0,-808.594 0,-1212.8916 517.607,0 1035.216,0 1552.824,0 -56.935,324.6903 21.702,506.9739 358.343,418.2388 277.703,-40.7625 493.406,-16.4004 398.161,334.5907 0,683.1221 0,1366.2441 0,2049.3691 226.169,-27.316 556.697,55.001 716.691,-41.824 0,-780.713 0,-1561.425 0,-2342.1358 265.437,0 530.88,0 796.319,0 0,794.6528 0,1589.3048 0,2383.9598 226.166,-27.316 556.699,55.001 716.689,-41.824 0,-780.713 0,-1561.425 0,-2342.1358 252.167,0 504.335,0 756.503,0 -56.935,-324.6896 21.703,-506.9731 358.345,-418.2388 398.16,0 796.321,0 1194.48,0 0,404.2976 0,808.5944 0,1212.8916 226.169,-27.312 556.699,55.002 716.69,-41.823 0,-641.3001 0,-1282.5983 0,-1923.8973 -756.506,0 -1513.01,0 -2269.515,0 -56.935,-324.6896 21.703,-506.9731 358.345,-418.238 637.058,0 1274.113,0 1911.17,0 -26.003,-237.5722 52.359,-584.7712 -39.815,-752.8293 -743.235,0 -1486.467,0 -2229.7,0 -4.443,-255.6108 -71.753,-577.2598 278.712,-460.0621 663.602,0 1327.201,0 1990.803,0 0,-641.2985 0,-1282.5974 0,-1923.8959 -226.166,27.3128 -556.698,-55.002 -716.69,41.8241 0,376.4142 0,752.8283 0,1129.2429 -517.606,0 -1035.215,0 -1552.825,0 66.487,-320.7803 -47.751,-451.7247 -358.344,-376.4146 -277.7,40.7627 -493.403,16.3997 -398.159,-334.5903 0,-697.0638 0,-1394.1273 0,-2091.191 -226.169,27.3123 -556.697,-55.0026 -716.689,41.8237 0,794.6528 0,1589.3052 0,2383.9576 -265.439,0 -530.882,0 -796.319,0 0,-808.5932 0,-1617.1874 0,-2425.7813 -504.34,0 -1008.675,0 -1513.011,0 0,-264.8843 0,-529.7688 0,-794.6529 -226.168,27.3122 -556.699,-55.0026 -716.688,41.8239 0,250.943 0,501.8859 0,752.829 z m 2627.86,3178.6106 c 384.886,0 769.772,0 1154.664,0 0,808.5938 0,1617.188 0,2425.7816 -769.778,0 -1539.556,0 -2309.332,0 0,-808.5936 0,-1617.1878 0,-2425.7816 384.89,0 769.776,0 1154.668,0 z"
   id="path946" /><path
   style="fill:#2962ff;stroke:#0000ff;stroke-width:4.44801"
   d="m 19296.9,13528.441 c -299.559,20.99 -475.931,470.958 -196.202,659.214 288.76,312.968 785.03,-238.612 468.227,-525.331 -69.412,-77.971 -167.217,-140.114 -272.025,-133.883 z"
   id="path948" /><path
   style="fill:#2962ff;stroke:#0000ff;stroke-width:4.44801"
   d="m 19293.479,1583.2426 c -390.12,1.8883 -452.865,717.9927 -39.039,730.7735 359.479,93.6908 587.697,-529.1866 224.122,-683.2313 -56.42,-32.3725 -120.355,-52.137 -185.083,-47.5422 z"
   id="path950" /></g>
 </g>
</svg>
