<?xml version="1.0" encoding="UTF-8" standalone="no"?>
<svg
   xmlns:ooo="http://xml.openoffice.org/svg/export"
   xmlns:dc="http://purl.org/dc/elements/1.1/"
   xmlns:cc="http://creativecommons.org/ns#"
   xmlns:rdf="http://www.w3.org/1999/02/22-rdf-syntax-ns#"
   xmlns:svg="http://www.w3.org/2000/svg"
   xmlns="http://www.w3.org/2000/svg"
   xmlns:sodipodi="http://sodipodi.sourceforge.net/DTD/sodipodi-0.dtd"
   xmlns:inkscape="http://www.inkscape.org/namespaces/inkscape"
   version="1.2"
   width="180.89mm"
   height="180.89mm"
   viewBox="0 0 18089 18089"
   preserveAspectRatio="xMidYMid"
   fill-rule="evenodd"
   stroke-width="28.222"
   stroke-linejoin="round"
   xml:space="preserve"
   id="svg92"
   sodipodi:docname="mobo-design.svg"
   inkscape:version="1.0.1 (3bc2e813f5, 2020-09-07)"><metadata
   id="metadata96"><rdf:RDF><cc:Work
       rdf:about=""><dc:format>image/svg+xml</dc:format><dc:type
         rdf:resource="http://purl.org/dc/dcmitype/StillImage" /></cc:Work></rdf:RDF></metadata><sodipodi:namedview
   pagecolor="#ffffff"
   bordercolor="#666666"
   borderopacity="1"
   objecttolerance="10"
   gridtolerance="10"
   guidetolerance="10"
   inkscape:pageopacity="0"
   inkscape:pageshadow="2"
   inkscape:window-width="1600"
   inkscape:window-height="822"
   id="namedview94"
   showgrid="false"
   inkscape:zoom="0.67178375"
   inkscape:cx="213.84773"
   inkscape:cy="357.92582"
   inkscape:window-x="-8"
   inkscape:window-y="-8"
   inkscape:window-maximized="1"
   inkscape:current-layer="g88"
   inkscape:document-rotation="0" />
 <defs
   class="ClipPathGroup"
   id="defs8">
  <clipPath
   id="presentation_clip_path"
   clipPathUnits="userSpaceOnUse">
   <rect
   x="0"
   y="0"
   width="18089"
   height="18089"
   id="rect2" />
  </clipPath>
  <clipPath
   id="presentation_clip_path_shrink"
   clipPathUnits="userSpaceOnUse">
   <rect
   x="18"
   y="18"
   width="18053"
   height="18053"
   id="rect5" />
  </clipPath>
 </defs>
 <defs
   class="TextShapeIndex"
   id="defs12">
  <g
   ooo:slide="id1"
   ooo:id-list="id3"
   id="g10" />
 </defs>
 <defs
   class="EmbeddedBulletChars"
   id="defs44">
  <g
   id="bullet-char-template-57356"
   transform="scale(0.00048828125,-0.00048828125)">
   <path
   d="M 580,1141 L 1163,571 580,0 -4,571 580,1141 Z"
   id="path14" />
  </g>
  <g
   id="bullet-char-template-57354"
   transform="scale(0.00048828125,-0.00048828125)">
   <path
   d="M 8,1128 L 1137,1128 1137,0 8,0 8,1128 Z"
   id="path17" />
  </g>
  <g
   id="bullet-char-template-10146"
   transform="scale(0.00048828125,-0.00048828125)">
   <path
   d="M 174,0 L 602,739 174,1481 1456,739 174,0 Z M 1358,739 L 309,1346 659,739 1358,739 Z"
   id="path20" />
  </g>
  <g
   id="bullet-char-template-10132"
   transform="scale(0.00048828125,-0.00048828125)">
   <path
   d="M 2015,739 L 1276,0 717,0 1260,543 174,543 174,936 1260,936 717,1481 1274,1481 2015,739 Z"
   id="path23" />
  </g>
  <g
   id="bullet-char-template-10007"
   transform="scale(0.00048828125,-0.00048828125)">
   <path
   d="M 0,-2 C -7,14 -16,27 -25,37 L 356,567 C 262,823 215,952 215,954 215,979 228,992 255,992 264,992 276,990 289,987 310,991 331,999 354,1012 L 381,999 492,748 772,1049 836,1024 860,1049 C 881,1039 901,1025 922,1006 886,937 835,863 770,784 769,783 710,716 594,584 L 774,223 C 774,196 753,168 711,139 L 727,119 C 717,90 699,76 672,76 641,76 570,178 457,381 L 164,-76 C 142,-110 111,-127 72,-127 30,-127 9,-110 8,-76 1,-67 -2,-52 -2,-32 -2,-23 -1,-13 0,-2 Z"
   id="path26" />
  </g>
  <g
   id="bullet-char-template-10004"
   transform="scale(0.00048828125,-0.00048828125)">
   <path
   d="M 285,-33 C 182,-33 111,30 74,156 52,228 41,333 41,471 41,549 55,616 82,672 116,743 169,778 240,778 293,778 328,747 346,684 L 369,508 C 377,444 397,411 428,410 L 1163,1116 C 1174,1127 1196,1133 1229,1133 1271,1133 1292,1118 1292,1087 L 1292,965 C 1292,929 1282,901 1262,881 L 442,47 C 390,-6 338,-33 285,-33 Z"
   id="path29" />
  </g>
  <g
   id="bullet-char-template-9679"
   transform="scale(0.00048828125,-0.00048828125)">
   <path
   d="M 813,0 C 632,0 489,54 383,161 276,268 223,411 223,592 223,773 276,916 383,1023 489,1130 632,1184 813,1184 992,1184 1136,1130 1245,1023 1353,916 1407,772 1407,592 1407,412 1353,268 1245,161 1136,54 992,0 813,0 Z"
   id="path32" />
  </g>
  <g
   id="bullet-char-template-8226"
   transform="scale(0.00048828125,-0.00048828125)">
   <path
   d="M 346,457 C 273,457 209,483 155,535 101,586 74,649 74,723 74,796 101,859 155,911 209,963 273,989 346,989 419,989 480,963 531,910 582,859 608,796 608,723 608,648 583,586 532,535 482,483 420,457 346,457 Z"
   id="path35" />
  </g>
  <g
   id="bullet-char-template-8211"
   transform="scale(0.00048828125,-0.00048828125)">
   <path
   d="M -4,459 L 1135,459 1135,606 -4,606 -4,459 Z"
   id="path38" />
  </g>
  <g
   id="bullet-char-template-61548"
   transform="scale(0.00048828125,-0.00048828125)">
   <path
   d="M 173,740 C 173,903 231,1043 346,1159 462,1274 601,1332 765,1332 928,1332 1067,1274 1183,1159 1299,1043 1357,903 1357,740 1357,577 1299,437 1183,322 1067,206 928,148 765,148 601,148 462,206 346,322 231,437 173,577 173,740 Z"
   id="path41" />
  </g>
 </defs>
 <g
   id="g49">
  <g
   id="id2"
   class="Master_Slide">
   <g
   id="bg-id2"
   class="Background" />
   <g
   id="bo-id2"
   class="BackgroundObjects" />
  </g>
 </g>
 <g
   class="SlideGroup"
   id="g90">
  <g
   id="g88">
   <g
   id="container-id1"
   transform="matrix(0.87784786,0,0,0.88018411,232.38886,28.225996)">
    
   </g>
  <path
   style="fill:#2962ff;stroke:#0000ff;stroke-width:3.92956"
   d="M 9971.4534,200.06571 C 6945.0609,204.54206 3918.6798,215.96801 892.2932,223.86791 482.85987,449.52573 105.3261,856.10137 2.0404503,1372.706 c 0,4130.0713 0,8260.1421 0,12390.217 172.8142097,484.62 494.7342797,884.333 917.4357197,1087.36 439.11813,58.266 901.98743,8.149 1350.18913,24.963 4877.4278,0.494 9754.8527,1.041 14632.2827,1.604 429.244,-201.134 808.961,-592.219 955.539,-1102.594 0,-4153.8241 0,-8307.6478 0,-12461.4702 -151.159,-427.36272 -388.09,-842.60558 -781.539,-1008.17617 -262.475,-151.08909 -578.999,-41.87361 -864.531,-81.92251 -2079.803,-34.0343 -4160.011,-20.89968 -6239.9636,-22.62141 z M 8935.2099,920.01683 c 2626.9491,3.32464 5253.8971,6.64941 7880.8491,9.97419 256.204,156.94838 505.156,446.23958 436.673,806.77108 -8.46,3935.0628 18.267,7870.7014 -29.276,11805.3679 -4.991,269.572 -219.559,474.367 -390.406,599.658 -5271.24,0 -10542.4846,0 -15813.7277,0 C 830.58562,13968.461 612.8755,13751.702 661.65978,13439.97 608.60249,9953.434 600.4735,6465.6019 633.09751,2978.7255 c 30.18,-578.0604 -32.18864,-1174.6623 91.0923,-1739.7632 112.95802,-176.4361 293.53069,-369.73016 498.07669,-328.70706 2570.9812,3.25394 5141.962,6.50777 7712.9434,9.76159 z"
   id="path924" /><path
   style="fill:#2962ff;stroke:#0000ff;stroke-width:3.92956"
   d="m 1564.8382,1659.538 c -302.9494,2.6714 -400.5566,555.931 -99.2743,666.3781 295.1967,153.0489 585.3861,-396.9892 288.8991,-597.1635 -55.8067,-42.5988 -121.7262,-72.631 -189.6248,-69.2146 z"
   id="path926" /><path
   style="fill:#2962ff;stroke:#0000ff;stroke-width:3.92956"
   d="m 1567.3972,12710.878 c -252.7509,19.416 -401.5626,435.641 -165.5444,609.78 243.6405,289.5 662.3627,-220.719 395.0627,-485.937 -58.5654,-72.124 -141.0877,-129.607 -229.5183,-123.843 z"
   id="path928" /><path
   style="fill:#2962ff;stroke:#0000ff;stroke-width:3.92956"
   d="m 2555.2183,6791.153 c 0,1470.1267 0,2940.2528 0,4410.38 627.0962,0 1254.1925,0 1881.2888,0 0,-2940.2533 0,-5880.5068 0,-8820.7594 -627.0963,0 -1254.1926,0 -1881.2888,0 0,1470.1266 0,2940.2526 0,4410.3794 z m 940.6442,-3714.0038 c 260.8026,-55.3206 407.2191,21.0865 335.9446,348.1881 0,2359.9396 0,4719.8797 0,7079.8197 -223.9631,0 -447.9261,0 -671.8891,0 0,-2476.0028 0,-4952.0053 0,-7428.0078 111.9815,0 223.963,0 335.9445,0 z"
   id="path930" /><path
   style="fill:#2962ff;stroke:#0000ff;stroke-width:3.92956"
   d="m 6384.9841,6056.0897 c 0,1225.1058 0,2450.2109 0,3675.3161 627.0969,0 1254.1926,0 1881.2893,0 0,-2450.2103 0,-4900.4215 0,-7350.6322 -627.0967,0 -1254.1924,0 -1881.2893,0 0,1225.1055 0,2450.2107 0,3675.3161 z m 1276.5891,-1.436 c 0,993.4586 0,1986.9169 0,2980.3757 -224.0943,0 -448.1886,0 -672.2827,0 5.7304,-1979.5125 11.4608,-3959.0245 17.1914,-5938.5367 218.3627,-7.4197 436.7263,-14.7992 655.0913,-22.1396 0,993.4337 0,1986.867 0,2980.3006 z"
   id="path932" /><path
   style="fill:#2962ff;stroke:#0000ff;stroke-width:3.92956"
   d="m 6384.9841,11588.408 c -71.2743,327.104 75.142,403.507 335.9448,348.19 301.2437,101.892 290.773,-155.188 268.7554,-425.564 96.6092,-356.278 -193.9169,-266.726 -403.1329,-270.815 -279.1793,-66.287 -188.363,111.618 -201.5673,348.189 z"
   id="path934" /><path
   style="fill:#2962ff;stroke:#0000ff;stroke-width:3.92956"
   d="m 6384.9841,13058.533 c -71.2743,327.103 75.142,403.51 335.9448,348.187 301.2437,101.897 290.773,-155.184 268.7554,-425.562 96.6092,-356.275 -193.9169,-266.723 -403.1329,-270.809 -279.1793,-66.288 -188.363,111.615 -201.5673,348.184 z"
   id="path936" /><path
   style="fill:#2962ff;stroke:#0000ff;stroke-width:3.92956"
   d="m 7661.5732,11588.408 c -71.2745,327.104 75.1418,403.507 335.9445,348.19 301.2437,101.892 290.7732,-155.188 268.7557,-425.564 96.6088,-356.278 -193.9171,-266.726 -403.1337,-270.815 -279.1788,-66.287 -188.3628,111.618 -201.5665,348.189 z"
   id="path938" /><path
   style="fill:#2962ff;stroke:#0000ff;stroke-width:3.92956"
   d="m 7661.5732,13058.533 c -71.2745,327.103 75.1418,403.51 335.9445,348.187 301.2437,101.897 290.7732,-155.184 268.7557,-425.562 96.6088,-356.275 -193.9171,-266.723 -403.1337,-270.809 -279.1788,-66.288 -188.3628,111.615 -201.5665,348.184 z"
   id="path940" /><path
   style="fill:#2962ff;stroke:#0000ff;stroke-width:3.92956"
   d="m 8938.1614,11588.408 c -71.2742,327.104 75.142,403.507 335.945,348.19 301.2436,101.892 290.772,-155.188 268.7546,-425.564 96.61,-356.278 -193.9163,-266.726 -403.1331,-270.815 -279.178,-66.287 -188.3627,111.618 -201.5665,348.189 z"
   id="path942" /><path
   style="fill:#2962ff;stroke:#0000ff;stroke-width:3.92956"
   d="m 8938.1614,13058.533 c -71.2742,327.103 75.142,403.51 335.945,348.187 301.2436,101.897 290.772,-155.184 268.7546,-425.562 96.61,-356.275 -193.9163,-266.723 -403.1331,-270.809 -279.178,-66.288 -188.3627,111.615 -201.5665,348.184 z"
   id="path944" /><path
   style="fill:#2962ff;stroke:#0000ff;stroke-width:3.92956"
   d="m 10886.64,3115.8369 c 0,245.0211 0,490.0422 0,735.0633 425.529,0 851.06,0 1276.587,0 0,502.9383 0,1005.876 0,1508.8133 -212.765,0 -425.527,0 -638.294,0 56.096,296.7263 -40.291,417.851 -302.35,348.1881 -335.943,0 -671.889,0 -1007.833,0 0,-361.0835 0,-722.1674 0,-1083.2509 -212.766,0 -425.53,0 -638.2938,0 0,593.2087 0,1186.4178 0,1779.6267 649.4918,0 1298.9858,0 1948.4768,0 3.75,236.4434 60.543,533.9726 -235.159,425.5628 -571.106,0 -1142.211,0 -1713.3178,0 21.9364,219.7568 -44.179,540.9204 33.5945,696.3761 638.2953,0 1276.5893,0 1914.8823,0 48.038,300.3417 -18.308,468.9553 -302.35,386.8749 -548.708,0 -1097.418,0 -1646.1268,0 0,606.1052 0,1212.2101 0,1818.3146 212.7638,0 425.5278,0 638.2938,0 0,-373.9792 0,-747.9589 0,-1121.939 436.727,0 873.457,0 1310.183,0 -48.038,300.3424 18.311,468.957 302.349,386.876 234.309,-37.7059 416.307,-15.1708 335.945,309.4999 0,631.8961 0,1263.7923 0,1895.6903 190.828,-25.266 469.708,50.878 604.703,-38.687 0,-722.168 0,-1444.3374 0,-2166.5032 223.96,0 447.924,0 671.887,0 0,735.063 0,1470.1272 0,2205.1902 190.826,-25.266 469.711,50.878 604.701,-38.687 0,-722.168 0,-1444.3374 0,-2166.5032 212.763,0 425.526,0 638.291,0 -48.037,-300.3418 18.313,-468.9563 302.351,-386.876 335.945,0 671.89,0 1007.833,0 0,373.9801 0,747.9598 0,1121.939 190.827,-25.2633 469.711,50.8782 604.701,-38.6859 0,-593.2109 0,-1186.4193 0,-1779.6287 -638.295,0 -1276.589,0 -1914.885,0 -48.037,-300.3416 18.313,-468.956 302.351,-386.8749 537.514,0 1075.023,0 1612.534,0 -21.939,-219.7572 44.178,-540.9203 -33.592,-696.3761 -627.1,0 -1254.195,0 -1881.293,0 -3.748,-236.443 -60.54,-533.9722 235.162,-425.5628 559.908,0 1119.815,0 1679.723,0 0,-593.2089 0,-1186.418 0,-1779.6267 -190.825,25.2647 -469.709,-50.8775 -604.701,38.6878 0,348.1875 0,696.375 0,1044.5631 -436.725,0 -873.453,0 -1310.184,0 56.1,-296.7257 -40.288,-417.8508 -302.349,-348.1881 -234.306,37.7061 -416.305,15.17 -335.942,-309.4998 0,-644.7924 0,-1289.5844 0,-1934.3768 -190.83,25.2645 -469.709,-50.8779 -604.701,38.6877 0,735.0632 0,1470.1261 0,2205.1889 -223.963,0 -447.927,0 -671.887,0 0,-747.9583 0,-1495.9175 0,-2243.8766 -425.533,0 -851.061,0 -1276.591,0 0,-245.021 0,-490.0421 0,-735.0633 -190.826,25.2643 -469.711,-50.8779 -604.699,38.6876 0,232.1254 0,464.2505 0,696.3757 z m 2217.235,2940.2528 c 324.743,0 649.488,0 974.237,0 0,747.9589 0,1495.9181 0,2243.8767 -649.494,0 -1298.987,0 -1948.479,0 0,-747.9586 0,-1495.9178 0,-2243.8767 324.747,0 649.492,0 974.242,0 z"
   id="path946" /><path
   style="fill:#2962ff;stroke:#0000ff;stroke-width:3.92956"
   d="m 16281.761,12710.878 c -252.749,19.416 -401.562,435.641 -165.542,609.78 243.639,289.5 662.362,-220.719 395.061,-485.937 -58.564,-72.124 -141.087,-129.607 -229.519,-123.843 z"
   id="path948" /><path
   style="fill:#2962ff;stroke:#0000ff;stroke-width:3.92956"
   d="m 16278.876,1661.4271 c -329.161,1.7467 -382.101,664.1519 -32.938,675.9742 303.307,86.665 495.863,-489.504 189.1,-631.9972 -47.605,-29.9449 -101.549,-48.2272 -156.162,-43.977 z"
   id="path950" /></g>
 </g>
</svg>
