<?xml version="1.0" encoding="UTF-8" standalone="no"?>
<svg
   xmlns:ooo="http://xml.openoffice.org/svg/export"
   xmlns:dc="http://purl.org/dc/elements/1.1/"
   xmlns:cc="http://creativecommons.org/ns#"
   xmlns:rdf="http://www.w3.org/1999/02/22-rdf-syntax-ns#"
   xmlns:svg="http://www.w3.org/2000/svg"
   xmlns="http://www.w3.org/2000/svg"
   xmlns:sodipodi="http://sodipodi.sourceforge.net/DTD/sodipodi-0.dtd"
   xmlns:inkscape="http://www.inkscape.org/namespaces/inkscape"
   version="1.2"
   width="180.89mm"
   height="180.89mm"
   viewBox="0 0 18089 18089"
   preserveAspectRatio="xMidYMid"
   fill-rule="evenodd"
   stroke-width="28.222"
   stroke-linejoin="round"
   xml:space="preserve"
   id="svg92"
   sodipodi:docname="mobo-design.svg"
   inkscape:version="1.0.1 (3bc2e813f5, 2020-09-07)"><metadata
   id="metadata96"><rdf:RDF><cc:Work
       rdf:about=""><dc:format>image/svg+xml</dc:format><dc:type
         rdf:resource="http://purl.org/dc/dcmitype/StillImage" /></cc:Work></rdf:RDF></metadata><sodipodi:namedview
   pagecolor="#ffffff"
   bordercolor="#666666"
   borderopacity="1"
   objecttolerance="10"
   gridtolerance="10"
   guidetolerance="10"
   inkscape:pageopacity="0"
   inkscape:pageshadow="2"
   inkscape:window-width="1600"
   inkscape:window-height="822"
   id="namedview94"
   showgrid="false"
   inkscape:zoom="1.017006"
   inkscape:cx="173.98148"
   inkscape:cy="278.17101"
   inkscape:window-x="-8"
   inkscape:window-y="-8"
   inkscape:window-maximized="1"
   inkscape:current-layer="g88"
   inkscape:document-rotation="0" />
 <defs
   class="ClipPathGroup"
   id="defs8">
  <clipPath
   id="presentation_clip_path"
   clipPathUnits="userSpaceOnUse">
   <rect
   x="0"
   y="0"
   width="18089"
   height="18089"
   id="rect2" />
  </clipPath>
  <clipPath
   id="presentation_clip_path_shrink"
   clipPathUnits="userSpaceOnUse">
   <rect
   x="18"
   y="18"
   width="18053"
   height="18053"
   id="rect5" />
  </clipPath>
 </defs>
 <defs
   class="TextShapeIndex"
   id="defs12">
  <g
   ooo:slide="id1"
   ooo:id-list="id3"
   id="g10" />
 </defs>
 <defs
   class="EmbeddedBulletChars"
   id="defs44">
  <g
   id="bullet-char-template-57356"
   transform="scale(0.00048828125,-0.00048828125)">
   <path
   d="M 580,1141 L 1163,571 580,0 -4,571 580,1141 Z"
   id="path14" />
  </g>
  <g
   id="bullet-char-template-57354"
   transform="scale(0.00048828125,-0.00048828125)">
   <path
   d="M 8,1128 L 1137,1128 1137,0 8,0 8,1128 Z"
   id="path17" />
  </g>
  <g
   id="bullet-char-template-10146"
   transform="scale(0.00048828125,-0.00048828125)">
   <path
   d="M 174,0 L 602,739 174,1481 1456,739 174,0 Z M 1358,739 L 309,1346 659,739 1358,739 Z"
   id="path20" />
  </g>
  <g
   id="bullet-char-template-10132"
   transform="scale(0.00048828125,-0.00048828125)">
   <path
   d="M 2015,739 L 1276,0 717,0 1260,543 174,543 174,936 1260,936 717,1481 1274,1481 2015,739 Z"
   id="path23" />
  </g>
  <g
   id="bullet-char-template-10007"
   transform="scale(0.00048828125,-0.00048828125)">
   <path
   d="M 0,-2 C -7,14 -16,27 -25,37 L 356,567 C 262,823 215,952 215,954 215,979 228,992 255,992 264,992 276,990 289,987 310,991 331,999 354,1012 L 381,999 492,748 772,1049 836,1024 860,1049 C 881,1039 901,1025 922,1006 886,937 835,863 770,784 769,783 710,716 594,584 L 774,223 C 774,196 753,168 711,139 L 727,119 C 717,90 699,76 672,76 641,76 570,178 457,381 L 164,-76 C 142,-110 111,-127 72,-127 30,-127 9,-110 8,-76 1,-67 -2,-52 -2,-32 -2,-23 -1,-13 0,-2 Z"
   id="path26" />
  </g>
  <g
   id="bullet-char-template-10004"
   transform="scale(0.00048828125,-0.00048828125)">
   <path
   d="M 285,-33 C 182,-33 111,30 74,156 52,228 41,333 41,471 41,549 55,616 82,672 116,743 169,778 240,778 293,778 328,747 346,684 L 369,508 C 377,444 397,411 428,410 L 1163,1116 C 1174,1127 1196,1133 1229,1133 1271,1133 1292,1118 1292,1087 L 1292,965 C 1292,929 1282,901 1262,881 L 442,47 C 390,-6 338,-33 285,-33 Z"
   id="path29" />
  </g>
  <g
   id="bullet-char-template-9679"
   transform="scale(0.00048828125,-0.00048828125)">
   <path
   d="M 813,0 C 632,0 489,54 383,161 276,268 223,411 223,592 223,773 276,916 383,1023 489,1130 632,1184 813,1184 992,1184 1136,1130 1245,1023 1353,916 1407,772 1407,592 1407,412 1353,268 1245,161 1136,54 992,0 813,0 Z"
   id="path32" />
  </g>
  <g
   id="bullet-char-template-8226"
   transform="scale(0.00048828125,-0.00048828125)">
   <path
   d="M 346,457 C 273,457 209,483 155,535 101,586 74,649 74,723 74,796 101,859 155,911 209,963 273,989 346,989 419,989 480,963 531,910 582,859 608,796 608,723 608,648 583,586 532,535 482,483 420,457 346,457 Z"
   id="path35" />
  </g>
  <g
   id="bullet-char-template-8211"
   transform="scale(0.00048828125,-0.00048828125)">
   <path
   d="M -4,459 L 1135,459 1135,606 -4,606 -4,459 Z"
   id="path38" />
  </g>
  <g
   id="bullet-char-template-61548"
   transform="scale(0.00048828125,-0.00048828125)">
   <path
   d="M 173,740 C 173,903 231,1043 346,1159 462,1274 601,1332 765,1332 928,1332 1067,1274 1183,1159 1299,1043 1357,903 1357,740 1357,577 1299,437 1183,322 1067,206 928,148 765,148 601,148 462,206 346,322 231,437 173,577 173,740 Z"
   id="path41" />
  </g>
 </defs>
 <g
   id="g49">
  <g
   id="id2"
   class="Master_Slide">
   <g
   id="bg-id2"
   class="Background" />
   <g
   id="bo-id2"
   class="BackgroundObjects" />
  </g>
 </g>
 <g
   class="SlideGroup"
   id="g90">
  <g
   id="g88">
   <g
   id="container-id1"
   transform="matrix(0.87784786,0,0,0.88018411,232.38886,28.225996)">
    <g
   id="id1"
   class="Slide"
   clip-path="url(#presentation_clip_path)">
     <g
   class="Page"
   id="g84">
      <g
   class="Graphic"
   id="g82">
       <g
   id="id3">
        <rect
   class="BoundingBox"
   stroke="none"
   fill="none"
   x="-6"
   y="28"
   width="18090"
   height="18036"
   id="rect51" />
        <path
   fill="#000000"
   stroke="none"
   d="m 16880,4191 c -124,-351 -385,-605 -737,-717 -156,-53 -829,-56 -7176,-49 l -7002,10 -176,88 c -226,109 -438,320 -547,545 l -88,176 v 4801 4801 l 88,176 c 109,225 321,436 547,545 l 176,88 h 7073 7073 l 176,-88 c 226,-109 438,-320 547,-545 l 88,-176 7,-4748 c 7,-4249 4,-4766 -49,-4907 z m -593,9630 c -38,64 -127,151 -194,194 l -123,77 H 9038 2106 l -123,-77 c -67,-43 -156,-130 -194,-194 -71,-116 -71,-179 -71,-4776 0,-4597 0,-4660 71,-4776 38,-64 127,-151 194,-194 l 123,-77 6858,-11 c 4639,-3 6900,4 6992,29 162,45 335,211 381,362 21,67 31,1969 28,4720 -7,4540 -7,4607 -78,4723 z"
   id="path53" />
        <path
   fill="#000000"
   stroke="none"
   d="m 15730,4620 c -187,-175 -483,-45 -483,208 0,165 120,278 285,278 251,0 378,-317 198,-486 z"
   id="path55" />
        <path
   fill="#000000"
   stroke="none"
   d="m 15529,6794 h -282 v 422 422 h -565 -564 v -141 -140 h -282 -283 v -844 -844 h -282 -282 v 844 844 h -282 -282 v -844 -844 h -565 -564 v -282 -281 h -283 -282 v 563 562 h 565 564 v 563 563 h -282 -282 v 140 141 h -565 -564 v -422 -422 h -282 -283 v 703 704 h 847 847 v 141 140 h -847 -847 v 282 281 h 847 847 v 141 140 h -847 -847 v 704 703 h 283 282 v -422 -422 h 564 565 v 141 140 h 282 282 v 845 844 h 282 283 v -844 -845 h 282 282 v 845 844 h 282 282 v -844 -845 h 283 282 v -140 -141 h 564 565 v 422 422 h 282 282 v -703 -704 h -847 -846 v -140 -141 h 846 847 v -281 -282 h -847 -846 v -140 -141 h 846 847 v -704 -703 z m -2822,2814 h -847 v -844 -844 h 847 846 v 844 844 z"
   id="path57" />
        <path
   fill="#000000"
   stroke="none"
   d="m 15730,13062 c -187,-176 -483,-46 -483,207 0,165 120,278 285,278 251,0 378,-317 198,-485 z"
   id="path59" />
        <path
   fill="#000000"
   stroke="none"
   d="m 9320,11859 h -282 v 281 281 h 282 282 v -281 -281 z"
   id="path61" />
        <path
   fill="#000000"
   stroke="none"
   d="m 9320,12984 h -282 v 282 281 h 282 282 v -281 -282 z"
   id="path63" />
        <path
   fill="#000000"
   stroke="none"
   d="m 7627,5106 h -847 v 2814 2813 h 847 847 V 7920 5106 Z m 0,5064 H 7345 V 7920 5669 h 282 282 v 2251 2250 z"
   id="path65" />
        <path
   fill="#000000"
   stroke="none"
   d="m 8191,11859 h -282 v 281 281 h 282 283 v -281 -281 z"
   id="path67" />
        <path
   fill="#000000"
   stroke="none"
   d="m 8191,12984 h -282 v 282 281 h 282 283 v -281 -282 z"
   id="path69" />
        <path
   fill="#000000"
   stroke="none"
   d="m 7063,11859 h -283 v 281 281 h 283 282 v -281 -281 z"
   id="path71" />
        <path
   fill="#000000"
   stroke="none"
   d="m 7063,12984 h -283 v 282 281 h 283 282 v -281 -282 z"
   id="path73" />
        <path
   fill="#000000"
   stroke="none"
   d="m 4240,5106 h -846 v 3376 3377 h 846 847 V 8482 5106 Z m 0,6190 H 3958 V 8482 5669 h 282 283 v 2813 2814 z"
   id="path75" />
        <path
   fill="#000000"
   stroke="none"
   d="m 2748,4620 c -187,-175 -483,-45 -483,208 0,165 120,278 286,278 250,0 377,-317 197,-486 z"
   id="path77" />
        <path
   fill="#000000"
   stroke="none"
   d="m 2748,13062 c -187,-176 -483,-46 -483,207 0,165 120,278 286,278 250,0 377,-317 197,-485 z"
   id="path79" />
       </g>
      </g>
     </g>
    </g>
   </g>
  <path
   style="fill:#2962ff;stroke:#0000ff;stroke-width:0.107177"
   d="m 338.93411,115.56903 c -88.57972,0.11377 -177.15911,0.40417 -265.738665,0.60495 -11.983742,5.7353 -23.033803,16.06878 -26.056878,29.19875 0,104.96946 0,209.9389 0,314.90836 5.058115,12.31712 14.480418,22.47621 26.852494,27.63629 12.852582,1.48093 26.400339,0.20716 39.518799,0.63451 142.75782,0.0125 285.51562,0.0264 428.27344,0.0407 12.56365,-5.11195 23.67759,-15.05173 27.96774,-28.02343 0,-105.57312 0,-211.14624 0,-316.71935 -4.42422,-10.86181 -11.35901,-21.41558 -22.87489,-25.62371 -7.68242,-3.84006 -16.94674,-1.06425 -25.30397,-2.08213 -60.87401,-0.86501 -121.75975,-0.53118 -182.63807,-0.57494 z m -30.32991,18.2982 c 76.8884,0.0845 153.77681,0.169 230.66521,0.2535 7.49889,3.98899 14.78554,11.34158 12.78102,20.50481 -0.24763,100.01315 0.53464,200.04091 -0.85685,300.04395 -0.14613,6.85145 -6.42631,12.05649 -11.42677,15.24081 -154.28444,0 -308.5689,0 -462.853343,0 -5.524152,-4.40522 -11.896321,-9.91435 -10.468458,-17.83728 -1.55293,-88.6134 -1.790858,-177.25978 -0.835984,-265.88187 0.883342,-14.69192 -0.942138,-29.85509 2.666188,-44.21764 3.306175,-4.48428 8.591374,-9.39702 14.578251,-8.35438 75.250246,0.0827 150.500496,0.1654 225.750736,0.2481 z"
   id="path924"
   transform="scale(26.458334)" /><path
   style="fill:#2962ff;stroke:#0000ff;stroke-width:0.107177"
   d="m 92.880218,152.66282 c -8.867049,0.0679 -11.723928,14.12949 -2.905665,16.93659 8.640135,3.88988 17.133707,-10.08983 8.45581,-15.17744 -1.633415,-1.08269 -3.562822,-1.84598 -5.550145,-1.75915 z"
   id="path926"
   transform="scale(26.458334)" /><path
   style="fill:#2962ff;stroke:#0000ff;stroke-width:0.107177"
   d="m 92.955116,433.54245 c -7.397784,0.49348 -11.753374,11.07225 -4.845335,15.49815 7.131131,7.35791 19.386749,-5.60976 11.563124,-12.35051 -1.714156,-1.83307 -4.129506,-3.29414 -6.717789,-3.14764 z"
   id="path928"
   transform="scale(26.458334)" /><path
   style="fill:#2962ff;stroke:#0000ff;stroke-width:0.107177"
   d="m 121.86773,283.08741 c 0,37.36458 0,74.72915 0,112.09373 18.35453,0 36.70906,0 55.06359,0 0,-74.72915 0,-149.45831 0,-224.18747 -18.35453,0 -36.70906,0 -55.06359,0 0,37.36458 0,74.72916 0,112.09374 z m 27.53179,-94.39473 c 7.63346,-1.40603 11.91893,0.53593 9.83279,8.8495 0,59.97999 0,119.95997 0,179.93995 -6.55519,0 -13.11038,0 -19.66557,0 0,-62.92982 0,-125.85963 0,-188.78945 3.27759,0 6.55519,0 9.83278,0 z"
   id="path930"
   transform="scale(26.458334)" /><path
   style="fill:#2962ff;stroke:#0000ff;stroke-width:0.107177"
   d="m 233.96146,264.40512 c 0,31.13715 0,62.27429 0,93.41144 18.35454,0 36.70906,0 55.0636,0 0,-62.27429 0,-124.54859 0,-186.82289 -18.35454,0 -36.70906,0 -55.0636,0 0,31.13715 0,62.2743 0,93.41145 z m 37.36458,-0.0365 c 0,25.24964 0,50.49928 0,75.74892 -6.55903,0 -13.11806,0 -19.67709,0 0.16772,-50.31108 0.33544,-100.62215 0.50317,-150.93323 6.39128,-0.18858 12.78258,-0.37614 19.17392,-0.5627 0,25.249 0,50.49801 0,75.74701 z"
   id="path932"
   transform="scale(26.458334)" /><path
   style="fill:#2962ff;stroke:#0000ff;stroke-width:0.107177"
   d="m 233.96146,405.01393 c -2.08614,8.31358 2.19933,10.25553 9.83279,8.8495 8.81713,2.58971 8.51066,-3.9442 7.86623,-10.81606 2.82765,-9.05508 -5.67578,-6.77908 -11.79934,-6.88295 -8.17132,-1.68474 -5.51322,2.83684 -5.89968,8.84951 z"
   id="path934"
   transform="scale(26.458334)" /><path
   style="fill:#2962ff;stroke:#0000ff;stroke-width:0.107177"
   d="m 233.96146,442.37851 c -2.08614,8.31358 2.19933,10.25553 9.83279,8.8495 8.81713,2.58971 8.51066,-3.9442 7.86623,-10.81606 2.82765,-9.05508 -5.67578,-6.77908 -11.79934,-6.88295 -8.17132,-1.68474 -5.51322,2.83683 -5.89968,8.84951 z"
   id="path936"
   transform="scale(26.458334)" /><path
   style="fill:#2962ff;stroke:#0000ff;stroke-width:0.107177"
   d="m 271.32604,405.01393 c -2.08614,8.31358 2.19933,10.25553 9.83279,8.8495 8.81713,2.58971 8.51066,-3.9442 7.86623,-10.81606 2.82765,-9.05508 -5.67578,-6.77908 -11.79935,-6.88295 -8.17131,-1.68474 -5.51321,2.83684 -5.89967,8.84951 z"
   id="path938"
   transform="scale(26.458334)" /><path
   style="fill:#2962ff;stroke:#0000ff;stroke-width:0.107177"
   d="m 271.32604,442.37851 c -2.08614,8.31358 2.19933,10.25553 9.83279,8.8495 8.81713,2.58971 8.51066,-3.9442 7.86623,-10.81606 2.82765,-9.05508 -5.67578,-6.77908 -11.79935,-6.88295 -8.17131,-1.68474 -5.51321,2.83683 -5.89967,8.84951 z"
   id="path940"
   transform="scale(26.458334)" /><path
   style="fill:#2962ff;stroke:#0000ff;stroke-width:0.107177"
   d="m 308.69062,405.01393 c -2.08614,8.31358 2.19933,10.25553 9.83279,8.8495 8.81713,2.58971 8.51065,-3.9442 7.86622,-10.81606 2.82766,-9.05508 -5.67578,-6.77908 -11.79934,-6.88295 -8.17131,-1.68474 -5.51321,2.83684 -5.89967,8.84951 z"
   id="path942"
   transform="scale(26.458334)" /><path
   style="fill:#2962ff;stroke:#0000ff;stroke-width:0.107177"
   d="m 308.69062,442.37851 c -2.08614,8.31358 2.19933,10.25553 9.83279,8.8495 8.81713,2.58971 8.51065,-3.9442 7.86622,-10.81606 2.82766,-9.05508 -5.67578,-6.77908 -11.79934,-6.88295 -8.17131,-1.68474 -5.51321,2.83683 -5.89967,8.84951 z"
   id="path944"
   transform="scale(26.458334)" /><path
   style="fill:#2962ff;stroke:#0000ff;stroke-width:0.107177"
   d="m 365.72077,189.67596 c 0,6.22743 0,12.45486 0,18.68229 12.45486,0 24.90972,0 37.36458,0 0,12.78262 0,25.56524 0,38.34785 -6.22743,0 -12.45486,0 -18.68229,0 1.64188,7.54156 -1.17929,10.62005 -8.8495,8.84951 -9.83279,0 -19.66557,0 -29.49836,0 0,-9.17726 0,-18.35453 0,-27.5318 -6.22743,0 -12.45486,0 -18.68229,0 0,15.07694 0,30.15388 0,45.23081 19.01005,0 38.0201,0 57.03015,0 0.10975,6.00942 1.77204,13.57139 -6.88295,10.81606 -16.71573,0 -33.43146,0 -50.1472,0 0.64211,5.58532 -1.2931,13.74797 0.98328,17.69902 18.68229,0 37.36458,0 56.04687,0 1.40603,7.63345 -0.53593,11.91893 -8.8495,9.83278 -16.06022,0 -32.12043,0 -48.18065,0 0,15.4047 0,30.80939 0,46.21408 6.22743,0 12.45486,0 18.68229,0 0,-9.50502 0,-19.01004 0,-28.51507 12.78262,0 25.56524,0 38.34786,0 -1.40603,7.63346 0.53593,11.91894 8.84951,9.83278 6.85799,-0.95832 12.1849,-0.38556 9.83278,7.86623 0,16.06021 0,32.12043 0,48.18064 5.58532,-0.64211 13.74796,1.2931 17.69901,-0.98327 0,-18.35454 0,-36.70906 0,-55.0636 6.55519,0 13.11038,0 19.66557,0 0,18.68229 0,37.36458 0,56.04687 5.58532,-0.64211 13.74796,1.2931 17.69901,-0.98327 0,-18.35454 0,-36.70906 0,-55.0636 6.22743,0 12.45486,0 18.68229,0 -1.40603,-7.63345 0.53593,-11.91893 8.84951,-9.83278 9.83278,0 19.66556,0 29.49835,0 0,9.50503 0,19.01005 0,28.51507 5.58532,-0.64211 13.74796,1.2931 17.69901,-0.98327 0,-15.07694 0,-30.15388 0,-45.23081 -18.68229,0 -37.36458,0 -56.04687,0 -1.40603,-7.63346 0.53593,-11.91894 8.84951,-9.83278 15.73245,0 31.46491,0 47.19736,0 -0.64211,-5.58532 1.2931,-13.74797 -0.98328,-17.69902 -18.35453,0 -36.70906,0 -55.06359,0 -0.10974,-6.00941 -1.77204,-13.57138 6.88295,-10.81606 16.38798,0 32.77594,0 49.16392,0 0,-15.07693 0,-30.15387 0,-45.23081 -5.58532,0.64212 -13.74796,-1.2931 -17.69901,0.98328 0,8.84951 0,17.69901 0,26.54852 -12.78262,0 -25.56524,0 -38.34786,0 1.64188,-7.54155 -1.17929,-10.62005 -8.8495,-8.84951 -6.858,0.95833 -12.18491,0.38556 -9.83279,-7.86622 0,-16.38798 0,-32.77595 0,-49.16392 -5.58532,0.64211 -13.74796,-1.29311 -17.69901,0.98328 0,18.68229 0,37.36457 0,56.04686 -6.55519,0 -13.11038,0 -19.66557,0 0,-19.01004 0,-38.02009 0,-57.03014 -12.45486,0 -24.90972,0 -37.36458,0 0,-6.22743 0,-12.45486 0,-18.68229 -5.58532,0.64211 -13.74796,-1.29311 -17.69901,0.98328 0,5.89967 0,11.79934 0,17.69901 z m 64.89638,74.72916 c 9.50502,0 19.01004,0 28.51507,0 0,19.01004 0,38.0201 0,57.03014 -19.01005,0 -38.0201,0 -57.03015,0 0,-19.01004 0,-38.0201 0,-57.03014 9.50503,0 19.01005,0 28.51508,0 z"
   id="path946"
   transform="scale(26.458334)" /><path
   style="fill:#2962ff;stroke:#0000ff;stroke-width:0.107177"
   d="m 523.63106,433.54245 c -7.39779,0.49348 -11.75338,11.07225 -4.84534,15.49815 7.13113,7.35791 19.38675,-5.60976 11.56313,-12.35051 -1.71416,-1.83307 -4.12951,-3.29414 -6.71779,-3.14764 z"
   id="path948"
   transform="scale(26.458334)" /><path
   style="fill:#2962ff;stroke:#0000ff;stroke-width:0.107177"
   d="m 523.54656,152.71083 c -9.6342,0.0444 -11.18373,16.88001 -0.96408,17.18049 8.87754,2.20267 14.51348,-12.44118 5.53479,-16.06277 -1.39327,-0.76108 -2.97219,-1.22574 -4.57071,-1.11772 z"
   id="path950"
   transform="scale(26.458334)" /></g>
 </g>
</svg>
