<?xml version="1.0" standalone="no"?>
<!DOCTYPE svg PUBLIC "-//W3C//DTD SVG 20010904//EN"
 "http://www.w3.org/TR/2001/REC-SVG-20010904/DTD/svg10.dtd">
<svg version="1.0" xmlns="http://www.w3.org/2000/svg"
 width="256.000000pt" height="256.000000pt" viewBox="0 0 256.000000 256.000000"
 preserveAspectRatio="xMidYMid meet">

<g transform="translate(0.000000,256.000000) scale(0.100000,-0.100000)"
fill="#000000" stroke="none">
<path d="M1240 2389 c-14 -6 -231 -126 -483 -267 -352 -197 -462 -263 -473
-284 -21 -40 -20 -1081 0 -1118 10 -17 159 -106 483 -289 420 -237 473 -264
513 -264 40 -1 93 27 514 264 355 200 471 270 482 291 11 22 14 123 14 562 l0
534 -25 30 c-29 35 -925 539 -971 547 -16 2 -40 0 -54 -6z m188 -375 c145 -30
278 -101 381 -204 50 -50 111 -131 111 -147 0 -9 -302 -183 -318 -183 -5 0
-22 16 -36 35 -57 75 -185 135 -286 135 -26 0 -76 -9 -111 -20 -316 -99 -348
-536 -51 -682 61 -30 74 -33 162 -33 88 0 101 3 162 33 45 22 83 51 116 88
l49 54 159 -87 c87 -47 161 -88 162 -89 11 -8 -80 -123 -143 -182 -86 -80
-194 -140 -311 -174 -111 -31 -277 -31 -389 1 -220 62 -417 235 -500 438 -223
550 262 1136 843 1017z"/>
</g>
</svg>
