<?xml version="1.0" standalone="no"?>
<!DOCTYPE svg PUBLIC "-//W3C//DTD SVG 20010904//EN"
 "http://www.w3.org/TR/2001/REC-SVG-20010904/DTD/svg10.dtd">
<svg version="1.0" xmlns="http://www.w3.org/2000/svg"
 width="1200.000000pt" height="451.000000pt" viewBox="0 0 1200.000000 451.000000"
 preserveAspectRatio="xMidYMid meet">
<metadata>
Created by potrace 1.16, written by Peter Selinger 2001-2019
</metadata>
<g transform="translate(0.000000,451.000000) scale(0.100000,-0.100000)"
fill="#000000" stroke="none">
<path d="M0 3575 c0 -514 2 -935 4 -935 2 0 28 33 59 73 30 40 62 81 72 90 15
16 112 17 1381 17 1177 0 1365 -2 1370 -14 3 -8 -7 -53 -22 -100 -25 -75 -32
-87 -57 -96 -20 -7 -492 -10 -1418 -10 l-1389 0 0 -1300 0 -1300 6000 0 6000
0 -1 1118 c-1 986 -3 1105 -15 1017 -65 -482 -287 -928 -642 -1289 -241 -245
-446 -399 -715 -535 -319 -162 -605 -244 -987 -283 -194 -19 -229 -20 -365
-10 -544 43 -988 234 -1343 577 -233 224 -382 454 -477 733 l-32 94 -33 -63
c-165 -322 -499 -694 -827 -922 -144 -101 -369 -213 -548 -275 -697 -239
-1417 -171 -1955 185 -560 371 -848 887 -876 1573 -27 644 237 1282 747 1801
114 115 130 129 267 238 332 260 721 429 1168 507 201 35 510 44 694 20 218
-29 378 -77 575 -171 323 -154 571 -368 765 -659 61 -91 180 -325 180 -354 0
-10 -8 -26 -18 -35 -9 -8 -111 -40 -227 -70 -323 -84 -552 -144 -635 -167
-158 -43 -250 -62 -273 -56 -13 3 -58 44 -101 91 -125 137 -248 213 -441 272
-83 25 -103 27 -260 27 -156 0 -177 -2 -260 -27 -200 -61 -418 -194 -578 -354
-236 -235 -357 -536 -357 -888 0 -195 44 -357 142 -523 40 -69 193 -225 268
-275 140 -91 293 -137 483 -145 204 -8 349 23 519 110 170 86 318 218 443 393
l64 90 -595 5 -596 5 -29 33 c-49 55 -42 84 95 385 117 257 201 419 234 450
16 16 47 33 68 38 22 4 462 9 980 9 l942 0 7 28 c11 44 82 217 124 300 202
400 535 784 881 1014 124 82 385 212 525 261 197 69 467 130 695 159 159 19
510 17 645 -5 376 -62 680 -195 967 -423 417 -333 645 -758 701 -1304 2 -19 5
380 5 888 l2 922 -6000 0 -6000 0 0 -935z m3182 -243 c-3 -28 -96 -167 -126
-188 -17 -12 -140 -14 -821 -14 -993 0 -1355 7 -1355 27 0 17 125 179 148 193
11 6 404 9 1087 7 l1070 -2 -3 -23z m-427 -1058 c13 -13 15 -30 10 -88 -8 -98
-13 -114 -33 -123 -9 -5 -309 -6 -667 -3 -567 4 -650 7 -652 20 -5 25 90 183
117 197 19 10 161 13 617 13 532 0 593 -2 608 -16z"/>
<path d="M9755 3363 c-222 -28 -481 -124 -644 -241 -321 -228 -533 -636 -534
-1022 -1 -506 364 -899 892 -960 330 -39 709 117 1000 410 245 246 382 631
341 957 -42 337 -233 613 -526 761 -152 77 -368 115 -529 95z"/>
</g>
</svg>
