<?xml version="1.0" encoding="UTF-8"?>
<!DOCTYPE svg PUBLIC "-//W3C//DTD SVG 1.1//EN" "http://www.w3.org/Graphics/SVG/1.1/DTD/svg11.dtd">
<svg version="1.2" width="180.89mm" height="180.89mm" viewBox="0 0 18089 18089" preserveAspectRatio="xMidYMid" fill-rule="evenodd" stroke-width="28.222" stroke-linejoin="round" xmlns="http://www.w3.org/2000/svg" xmlns:ooo="http://xml.openoffice.org/svg/export" xmlns:xlink="http://www.w3.org/1999/xlink" xmlns:presentation="http://sun.com/xmlns/staroffice/presentation" xmlns:smil="http://www.w3.org/2001/SMIL20/" xmlns:anim="urn:oasis:names:tc:opendocument:xmlns:animation:1.0" xml:space="preserve">
 <defs class="ClipPathGroup">
  <clipPath id="presentation_clip_path" clipPathUnits="userSpaceOnUse">
   <rect x="0" y="0" width="18089" height="18089"/>
  </clipPath>
  <clipPath id="presentation_clip_path_shrink" clipPathUnits="userSpaceOnUse">
   <rect x="18" y="18" width="18053" height="18053"/>
  </clipPath>
 </defs>
 <defs class="TextShapeIndex">
  <g ooo:slide="id1" ooo:id-list="id3"/>
 </defs>
 <defs class="EmbeddedBulletChars">
  <g id="bullet-char-template-57356" transform="scale(0.00048828125,-0.00048828125)">
   <path d="M 580,1141 L 1163,571 580,0 -4,571 580,1141 Z"/>
  </g>
  <g id="bullet-char-template-57354" transform="scale(0.00048828125,-0.00048828125)">
   <path d="M 8,1128 L 1137,1128 1137,0 8,0 8,1128 Z"/>
  </g>
  <g id="bullet-char-template-10146" transform="scale(0.00048828125,-0.00048828125)">
   <path d="M 174,0 L 602,739 174,1481 1456,739 174,0 Z M 1358,739 L 309,1346 659,739 1358,739 Z"/>
  </g>
  <g id="bullet-char-template-10132" transform="scale(0.00048828125,-0.00048828125)">
   <path d="M 2015,739 L 1276,0 717,0 1260,543 174,543 174,936 1260,936 717,1481 1274,1481 2015,739 Z"/>
  </g>
  <g id="bullet-char-template-10007" transform="scale(0.00048828125,-0.00048828125)">
   <path d="M 0,-2 C -7,14 -16,27 -25,37 L 356,567 C 262,823 215,952 215,954 215,979 228,992 255,992 264,992 276,990 289,987 310,991 331,999 354,1012 L 381,999 492,748 772,1049 836,1024 860,1049 C 881,1039 901,1025 922,1006 886,937 835,863 770,784 769,783 710,716 594,584 L 774,223 C 774,196 753,168 711,139 L 727,119 C 717,90 699,76 672,76 641,76 570,178 457,381 L 164,-76 C 142,-110 111,-127 72,-127 30,-127 9,-110 8,-76 1,-67 -2,-52 -2,-32 -2,-23 -1,-13 0,-2 Z"/>
  </g>
  <g id="bullet-char-template-10004" transform="scale(0.00048828125,-0.00048828125)">
   <path d="M 285,-33 C 182,-33 111,30 74,156 52,228 41,333 41,471 41,549 55,616 82,672 116,743 169,778 240,778 293,778 328,747 346,684 L 369,508 C 377,444 397,411 428,410 L 1163,1116 C 1174,1127 1196,1133 1229,1133 1271,1133 1292,1118 1292,1087 L 1292,965 C 1292,929 1282,901 1262,881 L 442,47 C 390,-6 338,-33 285,-33 Z"/>
  </g>
  <g id="bullet-char-template-9679" transform="scale(0.00048828125,-0.00048828125)">
   <path d="M 813,0 C 632,0 489,54 383,161 276,268 223,411 223,592 223,773 276,916 383,1023 489,1130 632,1184 813,1184 992,1184 1136,1130 1245,1023 1353,916 1407,772 1407,592 1407,412 1353,268 1245,161 1136,54 992,0 813,0 Z"/>
  </g>
  <g id="bullet-char-template-8226" transform="scale(0.00048828125,-0.00048828125)">
   <path d="M 346,457 C 273,457 209,483 155,535 101,586 74,649 74,723 74,796 101,859 155,911 209,963 273,989 346,989 419,989 480,963 531,910 582,859 608,796 608,723 608,648 583,586 532,535 482,483 420,457 346,457 Z"/>
  </g>
  <g id="bullet-char-template-8211" transform="scale(0.00048828125,-0.00048828125)">
   <path d="M -4,459 L 1135,459 1135,606 -4,606 -4,459 Z"/>
  </g>
  <g id="bullet-char-template-61548" transform="scale(0.00048828125,-0.00048828125)">
   <path d="M 173,740 C 173,903 231,1043 346,1159 462,1274 601,1332 765,1332 928,1332 1067,1274 1183,1159 1299,1043 1357,903 1357,740 1357,577 1299,437 1183,322 1067,206 928,148 765,148 601,148 462,206 346,322 231,437 173,577 173,740 Z"/>
  </g>
 </defs>
 <g>
  <g id="id2" class="Master_Slide">
   <g id="bg-id2" class="Background"/>
   <g id="bo-id2" class="BackgroundObjects"/>
  </g>
 </g>
 <g class="SlideGroup">
  <g>
   <g id="container-id1">
    <g id="id1" class="Slide" clip-path="url(#presentation_clip_path)">
     <g class="Page">
      <g class="Graphic">
       <g id="id3">
        <rect class="BoundingBox" stroke="none" fill="none" x="-6" y="28" width="18090" height="18036"/>
        <path fill="rgb(0,0,0)" stroke="none" d="M 16880,4191 C 16756,3840 16495,3586 16143,3474 15987,3421 15314,3418 8967,3425 L 1965,3435 1789,3523 C 1563,3632 1351,3843 1242,4068 L 1154,4244 1154,9045 1154,13846 1242,14022 C 1351,14247 1563,14458 1789,14567 L 1965,14655 9038,14655 16111,14655 16287,14567 C 16513,14458 16725,14247 16834,14022 L 16922,13846 16929,9098 C 16936,4849 16933,4332 16880,4191 L 16880,4191 Z M 16287,13821 C 16249,13885 16160,13972 16093,14015 L 15970,14092 9038,14092 2106,14092 1983,14015 C 1916,13972 1827,13885 1789,13821 1718,13705 1718,13642 1718,9045 1718,4448 1718,4385 1789,4269 1827,4205 1916,4118 1983,4075 L 2106,3998 8964,3987 C 13603,3984 15864,3991 15956,4016 16118,4061 16291,4227 16337,4378 16358,4445 16368,6347 16365,9098 16358,13638 16358,13705 16287,13821 L 16287,13821 Z"/>
        <path fill="rgb(0,0,0)" stroke="none" d="M 15730,4620 C 15543,4445 15247,4575 15247,4828 15247,4993 15367,5106 15532,5106 15783,5106 15910,4789 15730,4620 L 15730,4620 Z"/>
        <path fill="rgb(0,0,0)" stroke="none" d="M 15529,6794 L 15247,6794 15247,7216 15247,7638 14682,7638 14118,7638 14118,7497 14118,7357 13836,7357 13553,7357 13553,6513 13553,5669 13271,5669 12989,5669 12989,6513 12989,7357 12707,7357 12425,7357 12425,6513 12425,5669 11860,5669 11296,5669 11296,5387 11296,5106 11013,5106 10731,5106 10731,5669 10731,6231 11296,6231 11860,6231 11860,6794 11860,7357 11578,7357 11296,7357 11296,7497 11296,7638 10731,7638 10167,7638 10167,7216 10167,6794 9885,6794 9602,6794 9602,7497 9602,8201 10449,8201 11296,8201 11296,8342 11296,8482 10449,8482 9602,8482 9602,8764 9602,9045 10449,9045 11296,9045 11296,9186 11296,9326 10449,9326 9602,9326 9602,10030 9602,10733 9885,10733 10167,10733 10167,10311 10167,9889 10731,9889 11296,9889 11296,10030 11296,10170 11578,10170 11860,10170 11860,11015 11860,11859 12142,11859 12425,11859 12425,11015 12425,10170 12707,10170 12989,10170 12989,11015 12989,11859 13271,11859 13553,11859 13553,11015 13553,10170 13836,10170 14118,10170 14118,10030 14118,9889 14682,9889 15247,9889 15247,10311 15247,10733 15529,10733 15811,10733 15811,10030 15811,9326 14964,9326 14118,9326 14118,9186 14118,9045 14964,9045 15811,9045 15811,8764 15811,8482 14964,8482 14118,8482 14118,8342 14118,8201 14964,8201 15811,8201 15811,7497 15811,6794 15529,6794 15529,6794 Z M 12707,9608 L 11860,9608 11860,8764 11860,7920 12707,7920 13553,7920 13553,8764 13553,9608 12707,9608 12707,9608 Z"/>
        <path fill="rgb(0,0,0)" stroke="none" d="M 15730,13062 C 15543,12886 15247,13016 15247,13269 15247,13434 15367,13547 15532,13547 15783,13547 15910,13230 15730,13062 L 15730,13062 Z"/>
        <path fill="rgb(0,0,0)" stroke="none" d="M 9320,11859 L 9038,11859 9038,12140 9038,12421 9320,12421 9602,12421 9602,12140 9602,11859 9320,11859 9320,11859 Z"/>
        <path fill="rgb(0,0,0)" stroke="none" d="M 9320,12984 L 9038,12984 9038,13266 9038,13547 9320,13547 9602,13547 9602,13266 9602,12984 9320,12984 9320,12984 Z"/>
        <path fill="rgb(0,0,0)" stroke="none" d="M 7627,5106 L 6780,5106 6780,7920 6780,10733 7627,10733 8474,10733 8474,7920 8474,5106 7627,5106 7627,5106 Z M 7627,10170 L 7345,10170 7345,7920 7345,5669 7627,5669 7909,5669 7909,7920 7909,10170 7627,10170 7627,10170 Z"/>
        <path fill="rgb(0,0,0)" stroke="none" d="M 8191,11859 L 7909,11859 7909,12140 7909,12421 8191,12421 8474,12421 8474,12140 8474,11859 8191,11859 8191,11859 Z"/>
        <path fill="rgb(0,0,0)" stroke="none" d="M 8191,12984 L 7909,12984 7909,13266 7909,13547 8191,13547 8474,13547 8474,13266 8474,12984 8191,12984 8191,12984 Z"/>
        <path fill="rgb(0,0,0)" stroke="none" d="M 7063,11859 L 6780,11859 6780,12140 6780,12421 7063,12421 7345,12421 7345,12140 7345,11859 7063,11859 7063,11859 Z"/>
        <path fill="rgb(0,0,0)" stroke="none" d="M 7063,12984 L 6780,12984 6780,13266 6780,13547 7063,13547 7345,13547 7345,13266 7345,12984 7063,12984 7063,12984 Z"/>
        <path fill="rgb(0,0,0)" stroke="none" d="M 4240,5106 L 3394,5106 3394,8482 3394,11859 4240,11859 5087,11859 5087,8482 5087,5106 4240,5106 4240,5106 Z M 4240,11296 L 3958,11296 3958,8482 3958,5669 4240,5669 4523,5669 4523,8482 4523,11296 4240,11296 4240,11296 Z"/>
        <path fill="rgb(0,0,0)" stroke="none" d="M 2748,4620 C 2561,4445 2265,4575 2265,4828 2265,4993 2385,5106 2551,5106 2801,5106 2928,4789 2748,4620 L 2748,4620 Z"/>
        <path fill="rgb(0,0,0)" stroke="none" d="M 2748,13062 C 2561,12886 2265,13016 2265,13269 2265,13434 2385,13547 2551,13547 2801,13547 2928,13230 2748,13062 L 2748,13062 Z"/>
       </g>
      </g>
     </g>
    </g>
   </g>
  </g>
 </g>
</svg>