<?xml version="1.0" standalone="no"?>
<!DOCTYPE svg PUBLIC "-//W3C//DTD SVG 20010904//EN"
 "http://www.w3.org/TR/2001/REC-SVG-20010904/DTD/svg10.dtd">
<svg version="1.0" xmlns="http://www.w3.org/2000/svg"
 width="908.000000pt" height="980.000000pt" viewBox="0 0 908.000000 980.000000"
 preserveAspectRatio="xMidYMid meet">

<g transform="translate(0.000000,980.000000) scale(0.100000,-0.100000)"
fill="#000000" stroke="none">
<path d="M4820 8515 l0 -1285 -1258 0 c-1183 0 -1592 5 -1592 19 0 4 38 19 84
35 123 41 244 117 351 218 308 292 400 676 246 1038 -90 210 -269 401 -476
508 -159 82 -271 107 -444 99 -153 -7 -213 -22 -356 -92 -253 -123 -442 -342
-530 -615 -24 -71 -29 -107 -32 -220 -4 -119 -2 -146 20 -231 28 -106 75 -212
139 -309 54 -83 194 -224 277 -280 79 -53 207 -113 288 -136 34 -9 60 -21 57
-26 -3 -4 -128 -8 -277 -8 -414 0 -561 -17 -712 -83 -248 -108 -468 -352 -562
-622 -40 -114 -46 -343 -39 -1524 l5 -1043 48 -86 c86 -155 226 -270 382 -316
66 -19 176 -20 254 -2 l57 14 0 -45 c0 -25 -25 -312 -55 -637 -121 -1291 -172
-1874 -196 -2211 -11 -154 -10 -176 5 -230 34 -114 76 -185 166 -276 160 -162
322 -204 520 -135 140 48 285 171 343 288 50 103 57 155 132 938 55 572 94
942 100 948 8 8 32 -220 105 -978 59 -622 74 -743 100 -830 60 -202 275 -380
480 -397 202 -17 438 132 541 341 l44 90 -1 140 c-2 189 -59 851 -229 2633
l-75 792 0 1051 0 1050 1045 0 1045 0 0 -2970 0 -2970 160 0 160 0 1 2423 c1
1332 4 2685 7 3006 l7 584 25 15 c40 25 153 143 188 196 52 80 75 151 80 251
7 145 -26 250 -117 368 l-52 67 1168 0 1168 1 240 210 c1206 1059 1230 1081
1213 1093 -8 6 -126 97 -263 202 -138 105 -464 351 -726 547 l-476 357 -1231
0 -1232 0 0 160 0 160 -160 0 -160 0 0 -1285z m3089 335 c508 -381 661 -499
661 -508 0 -9 -98 -96 -644 -575 l-429 -377 -1178 0 -1179 0 0 885 0 885 1178
0 1177 0 414 -310z m-5982 -35 c176 -33 325 -150 418 -326 45 -86 59 -178 52
-334 -10 -197 -44 -287 -152 -404 -75 -80 -158 -135 -250 -164 -61 -19 -92
-22 -245 -22 -160 0 -180 2 -230 23 -170 72 -298 205 -357 373 -22 61 -27 96
-31 204 -5 154 10 232 66 345 75 154 252 285 422 313 61 10 235 6 307 -8z
m3130 -1958 c70 -74 83 -103 83 -186 0 -92 -10 -115 -83 -188 l-61 -63 -1293
0 -1293 0 0 -1203 0 -1204 80 -834 c167 -1758 233 -2524 228 -2654 -5 -111
-26 -152 -94 -186 -39 -18 -58 -21 -127 -17 -133 7 -205 59 -227 164 -20 96
-81 710 -250 2522 -39 415 -76 808 -83 875 l-12 122 -157 3 -157 3 -5 -33 c-7
-36 -30 -276 -141 -1468 -197 -2104 -188 -2021 -220 -2076 -13 -22 -43 -58
-66 -79 l-42 -38 -87 5 c-113 7 -182 41 -220 108 -22 40 -25 55 -23 135 2 94
72 877 223 2483 l90 953 0 1129 0 1130 -158 0 -159 0 -6 -1145 -5 -1146 -44
-39 c-67 -61 -102 -74 -193 -75 -90 0 -98 3 -183 80 l-52 47 1 1001 c0 551 4
1109 8 1239 l9 238 36 75 c79 168 232 304 388 346 47 13 1296 23 3204 27
l1041 2 50 -53z"/>
</g>
</svg>
